<mxfile host="Electron" modified="2023-12-15T12:50:31.878Z" agent="Mozilla/5.0 (Windows NT 10.0; Win64; x64) AppleWebKit/537.36 (KHTML, like Gecko) draw.io/21.6.8 Chrome/114.0.5735.289 Electron/25.5.0 Safari/537.36" etag="omGmZT6SqQ-PdGoamM1l" version="21.6.8" type="device">
  <diagram name="Page-1" id="_kxFffZLoG27_8wup8WT">
    <mxGraphModel dx="934" dy="601" grid="1" gridSize="10" guides="1" tooltips="1" connect="1" arrows="1" fold="1" page="1" pageScale="1" pageWidth="1654" pageHeight="1169" math="0" shadow="0">
      <root>
        <mxCell id="0" />
        <mxCell id="1" parent="0" />
        <mxCell id="UpswHM3UxFJulpg7v91b-1" value="AciesOne" style="swimlane;html=1;childLayout=stackLayout;resizeParent=1;resizeParentMax=0;horizontal=0;startSize=20;horizontalStack=0;whiteSpace=wrap;" parent="1" vertex="1">
          <mxGeometry y="39" width="1650" height="330" as="geometry" />
        </mxCell>
        <mxCell id="xxXPaRyj7qe5OcDNK9K2-376" value="Windows Service" style="swimlane;html=1;startSize=20;horizontal=0;" parent="UpswHM3UxFJulpg7v91b-1" vertex="1">
          <mxGeometry x="20" width="1630" height="150" as="geometry" />
        </mxCell>
        <mxCell id="xxXPaRyj7qe5OcDNK9K2-378" value="" style="points=[[0.145,0.145,0],[0.5,0,0],[0.855,0.145,0],[1,0.5,0],[0.855,0.855,0],[0.5,1,0],[0.145,0.855,0],[0,0.5,0]];shape=mxgraph.bpmn.event;html=1;verticalLabelPosition=bottom;labelBackgroundColor=#ffffff;verticalAlign=top;align=center;perimeter=ellipsePerimeter;outlineConnect=0;aspect=fixed;outline=standard;symbol=message;" parent="xxXPaRyj7qe5OcDNK9K2-376" vertex="1">
          <mxGeometry x="1330" y="30" width="50" height="50" as="geometry" />
        </mxCell>
        <mxCell id="xxXPaRyj7qe5OcDNK9K2-379" value="PRODAFK" style="shape=datastore;html=1;labelPosition=center;verticalLabelPosition=middle;align=center;verticalAlign=middle;" parent="xxXPaRyj7qe5OcDNK9K2-376" vertex="1">
          <mxGeometry x="1435" y="107" width="40" height="40" as="geometry" />
        </mxCell>
        <mxCell id="xxXPaRyj7qe5OcDNK9K2-380" value="Get BOM data" style="points=[[0.25,0,0],[0.5,0,0],[0.75,0,0],[1,0.25,0],[1,0.5,0],[1,0.75,0],[0.75,1,0],[0.5,1,0],[0.25,1,0],[0,0.75,0],[0,0.5,0],[0,0.25,0]];shape=mxgraph.bpmn.task;whiteSpace=wrap;rectStyle=rounded;size=10;html=1;container=1;expand=0;collapsible=0;taskMarker=abstract;" parent="xxXPaRyj7qe5OcDNK9K2-376" vertex="1">
          <mxGeometry x="1400" y="15" width="120" height="80" as="geometry" />
        </mxCell>
        <mxCell id="xxXPaRyj7qe5OcDNK9K2-381" value="" style="edgeStyle=elbowEdgeStyle;fontSize=12;html=1;endArrow=blockThin;endFill=1;rounded=0;" parent="xxXPaRyj7qe5OcDNK9K2-376" source="xxXPaRyj7qe5OcDNK9K2-378" target="xxXPaRyj7qe5OcDNK9K2-380" edge="1">
          <mxGeometry width="160" relative="1" as="geometry">
            <mxPoint x="1075" y="250" as="sourcePoint" />
            <mxPoint x="1340" y="260" as="targetPoint" />
          </mxGeometry>
        </mxCell>
        <mxCell id="xxXPaRyj7qe5OcDNK9K2-383" value="" style="fontSize=12;html=1;endFill=0;startFill=0;endSize=6;startSize=6;dashed=1;dashPattern=1 4;endArrow=openThin;startArrow=none;rounded=0;" parent="xxXPaRyj7qe5OcDNK9K2-376" source="xxXPaRyj7qe5OcDNK9K2-379" target="xxXPaRyj7qe5OcDNK9K2-380" edge="1">
          <mxGeometry width="160" relative="1" as="geometry">
            <mxPoint x="2064" y="160" as="sourcePoint" />
            <mxPoint x="2074" y="210" as="targetPoint" />
          </mxGeometry>
        </mxCell>
        <mxCell id="xxXPaRyj7qe5OcDNK9K2-384" value="" style="points=[[0.145,0.145,0],[0.5,0,0],[0.855,0.145,0],[1,0.5,0],[0.855,0.855,0],[0.5,1,0],[0.145,0.855,0],[0,0.5,0]];shape=mxgraph.bpmn.event;html=1;verticalLabelPosition=bottom;labelBackgroundColor=#ffffff;verticalAlign=top;align=center;perimeter=ellipsePerimeter;outlineConnect=0;aspect=fixed;outline=end;symbol=message;" parent="xxXPaRyj7qe5OcDNK9K2-376" vertex="1">
          <mxGeometry x="1540" y="30" width="50" height="50" as="geometry" />
        </mxCell>
        <mxCell id="xxXPaRyj7qe5OcDNK9K2-385" value="" style="edgeStyle=elbowEdgeStyle;fontSize=12;html=1;endArrow=blockThin;endFill=1;rounded=0;" parent="xxXPaRyj7qe5OcDNK9K2-376" source="xxXPaRyj7qe5OcDNK9K2-380" target="xxXPaRyj7qe5OcDNK9K2-384" edge="1">
          <mxGeometry width="160" relative="1" as="geometry">
            <mxPoint x="1155" y="250" as="sourcePoint" />
            <mxPoint x="1420" y="260" as="targetPoint" />
          </mxGeometry>
        </mxCell>
        <mxCell id="xxXPaRyj7qe5OcDNK9K2-386" value="ORDLIN" style="shape=datastore;html=1;labelPosition=center;verticalLabelPosition=middle;align=center;verticalAlign=middle;" parent="xxXPaRyj7qe5OcDNK9K2-376" vertex="1">
          <mxGeometry x="1360" y="101" width="40" height="40" as="geometry" />
        </mxCell>
        <mxCell id="xxXPaRyj7qe5OcDNK9K2-387" value="" style="fontSize=12;html=1;endFill=0;startFill=0;endSize=6;startSize=6;dashed=1;dashPattern=1 4;endArrow=openThin;startArrow=none;rounded=0;" parent="xxXPaRyj7qe5OcDNK9K2-376" source="xxXPaRyj7qe5OcDNK9K2-386" target="xxXPaRyj7qe5OcDNK9K2-380" edge="1">
          <mxGeometry width="160" relative="1" as="geometry">
            <mxPoint x="2074" y="230" as="sourcePoint" />
            <mxPoint x="1390" y="115" as="targetPoint" />
          </mxGeometry>
        </mxCell>
        <mxCell id="xxXPaRyj7qe5OcDNK9K2-392" value="OVFB" style="shape=datastore;html=1;labelPosition=center;verticalLabelPosition=middle;align=center;verticalAlign=middle;" parent="xxXPaRyj7qe5OcDNK9K2-376" vertex="1">
          <mxGeometry x="1510" y="101" width="40" height="40" as="geometry" />
        </mxCell>
        <mxCell id="xxXPaRyj7qe5OcDNK9K2-393" value="" style="fontSize=12;html=1;endFill=0;startFill=0;endSize=6;startSize=6;dashed=1;dashPattern=1 4;endArrow=openThin;startArrow=none;rounded=0;" parent="xxXPaRyj7qe5OcDNK9K2-376" source="xxXPaRyj7qe5OcDNK9K2-392" target="xxXPaRyj7qe5OcDNK9K2-380" edge="1">
          <mxGeometry width="160" relative="1" as="geometry">
            <mxPoint x="2274" y="149" as="sourcePoint" />
            <mxPoint x="1530" y="35" as="targetPoint" />
          </mxGeometry>
        </mxCell>
        <mxCell id="UpswHM3UxFJulpg7v91b-2" value="GUI" style="swimlane;html=1;startSize=20;horizontal=0;" parent="UpswHM3UxFJulpg7v91b-1" vertex="1">
          <mxGeometry x="20" y="150" width="1630" height="180" as="geometry" />
        </mxCell>
        <mxCell id="xxXPaRyj7qe5OcDNK9K2-105" value="" style="points=[[0.145,0.145,0],[0.5,0,0],[0.855,0.145,0],[1,0.5,0],[0.855,0.855,0],[0.5,1,0],[0.145,0.855,0],[0,0.5,0]];shape=mxgraph.bpmn.event;html=1;verticalLabelPosition=bottom;labelBackgroundColor=#ffffff;verticalAlign=top;align=center;perimeter=ellipsePerimeter;outlineConnect=0;aspect=fixed;outline=standard;symbol=general;" parent="UpswHM3UxFJulpg7v91b-2" vertex="1">
          <mxGeometry x="80" y="13" width="50" height="50" as="geometry" />
        </mxCell>
        <mxCell id="xxXPaRyj7qe5OcDNK9K2-107" value="" style="edgeStyle=elbowEdgeStyle;fontSize=12;html=1;endArrow=blockThin;endFill=1;rounded=0;" parent="UpswHM3UxFJulpg7v91b-2" source="xxXPaRyj7qe5OcDNK9K2-105" target="xxXPaRyj7qe5OcDNK9K2-304" edge="1">
          <mxGeometry width="160" relative="1" as="geometry">
            <mxPoint x="270" y="130" as="sourcePoint" />
            <mxPoint x="104.82352941176464" y="80" as="targetPoint" />
          </mxGeometry>
        </mxCell>
        <mxCell id="xxXPaRyj7qe5OcDNK9K2-108" value="" style="points=[[0.145,0.145,0],[0.5,0,0],[0.855,0.145,0],[1,0.5,0],[0.855,0.855,0],[0.5,1,0],[0.145,0.855,0],[0,0.5,0]];shape=mxgraph.bpmn.event;html=1;verticalLabelPosition=bottom;labelBackgroundColor=#ffffff;verticalAlign=top;align=center;perimeter=ellipsePerimeter;outlineConnect=0;aspect=fixed;outline=catching;symbol=message;" parent="UpswHM3UxFJulpg7v91b-2" vertex="1">
          <mxGeometry x="600" y="95" width="50" height="50" as="geometry" />
        </mxCell>
        <mxCell id="xxXPaRyj7qe5OcDNK9K2-109" value="" style="edgeStyle=elbowEdgeStyle;fontSize=12;html=1;endArrow=blockThin;endFill=1;rounded=0;" parent="UpswHM3UxFJulpg7v91b-2" source="xxXPaRyj7qe5OcDNK9K2-304" target="xxXPaRyj7qe5OcDNK9K2-108" edge="1">
          <mxGeometry width="160" relative="1" as="geometry">
            <mxPoint x="165" y="120" as="sourcePoint" />
            <mxPoint x="430" y="130" as="targetPoint" />
          </mxGeometry>
        </mxCell>
        <mxCell id="xxXPaRyj7qe5OcDNK9K2-275" value="Wait until plan has been executed or failed" style="points=[[0.25,0,0],[0.5,0,0],[0.75,0,0],[1,0.25,0],[1,0.5,0],[1,0.75,0],[0.75,1,0],[0.5,1,0],[0.25,1,0],[0,0.75,0],[0,0.5,0],[0,0.25,0]];shape=mxgraph.bpmn.task;whiteSpace=wrap;rectStyle=rounded;size=10;html=1;container=1;expand=0;collapsible=0;taskMarker=abstract;isLoopStandard=1;isLoopSub=1;" parent="UpswHM3UxFJulpg7v91b-2" vertex="1">
          <mxGeometry x="830" y="80" width="120" height="80" as="geometry" />
        </mxCell>
        <mxCell id="xxXPaRyj7qe5OcDNK9K2-313" value="" style="points=[[0.145,0.145,0],[0.5,0,0],[0.855,0.145,0],[1,0.5,0],[0.855,0.855,0],[0.5,1,0],[0.145,0.855,0],[0,0.5,0]];shape=mxgraph.bpmn.event;html=1;verticalLabelPosition=bottom;labelBackgroundColor=#ffffff;verticalAlign=top;align=center;perimeter=ellipsePerimeter;outlineConnect=0;aspect=fixed;outline=boundInt;symbol=timer;" parent="xxXPaRyj7qe5OcDNK9K2-275" vertex="1">
          <mxGeometry x="97.5" y="-20" width="35" height="35" as="geometry" />
        </mxCell>
        <mxCell id="xxXPaRyj7qe5OcDNK9K2-276" value="" style="edgeStyle=elbowEdgeStyle;fontSize=12;html=1;endArrow=blockThin;endFill=1;rounded=0;" parent="UpswHM3UxFJulpg7v91b-2" source="xxXPaRyj7qe5OcDNK9K2-108" target="xxXPaRyj7qe5OcDNK9K2-275" edge="1">
          <mxGeometry width="160" relative="1" as="geometry">
            <mxPoint x="270" y="130" as="sourcePoint" />
            <mxPoint x="430" y="130" as="targetPoint" />
          </mxGeometry>
        </mxCell>
        <mxCell id="xxXPaRyj7qe5OcDNK9K2-286" value="" style="points=[[0.25,0.25,0],[0.5,0,0],[0.75,0.25,0],[1,0.5,0],[0.75,0.75,0],[0.5,1,0],[0.25,0.75,0],[0,0.5,0]];shape=mxgraph.bpmn.gateway2;html=1;verticalLabelPosition=bottom;labelBackgroundColor=#ffffff;verticalAlign=top;align=center;perimeter=rhombusPerimeter;outlineConnect=0;outline=none;symbol=none;" parent="UpswHM3UxFJulpg7v91b-2" vertex="1">
          <mxGeometry x="990" y="95" width="50" height="50" as="geometry" />
        </mxCell>
        <mxCell id="xxXPaRyj7qe5OcDNK9K2-287" value="" style="edgeStyle=elbowEdgeStyle;fontSize=12;html=1;endArrow=blockThin;endFill=1;rounded=0;" parent="UpswHM3UxFJulpg7v91b-2" source="xxXPaRyj7qe5OcDNK9K2-275" target="xxXPaRyj7qe5OcDNK9K2-286" edge="1">
          <mxGeometry width="160" relative="1" as="geometry">
            <mxPoint x="400" y="130" as="sourcePoint" />
            <mxPoint x="560" y="130" as="targetPoint" />
          </mxGeometry>
        </mxCell>
        <mxCell id="xxXPaRyj7qe5OcDNK9K2-288" value="" style="shape=mxgraph.bpmn.event;html=1;verticalLabelPosition=bottom;labelBackgroundColor=#ffffff;verticalAlign=top;align=center;outlineConnect=0;outline=end;symbol=error;points=[[0.145,0.145,0],[0.5,0,0],[0.855,0.145,0],[1,0.5,0],[0.855,0.855,0],[0.5,1,0],[0.145,0.855,0],[0,0.5,0]];perimeter=ellipsePerimeter;aspect=fixed;" parent="UpswHM3UxFJulpg7v91b-2" vertex="1">
          <mxGeometry x="990" y="10" width="50" height="50" as="geometry" />
        </mxCell>
        <mxCell id="xxXPaRyj7qe5OcDNK9K2-289" value="failed" style="edgeStyle=elbowEdgeStyle;fontSize=12;html=1;endArrow=blockThin;endFill=1;rounded=0;" parent="UpswHM3UxFJulpg7v91b-2" source="xxXPaRyj7qe5OcDNK9K2-286" target="xxXPaRyj7qe5OcDNK9K2-288" edge="1">
          <mxGeometry width="160" relative="1" as="geometry">
            <mxPoint x="400" y="130" as="sourcePoint" />
            <mxPoint x="560" y="130" as="targetPoint" />
          </mxGeometry>
        </mxCell>
        <mxCell id="xxXPaRyj7qe5OcDNK9K2-304" value="Request calculation for range of batches" style="points=[[0.25,0,0],[0.5,0,0],[0.75,0,0],[1,0.25,0],[1,0.5,0],[1,0.75,0],[0.75,1,0],[0.5,1,0],[0.25,1,0],[0,0.75,0],[0,0.5,0],[0,0.25,0]];shape=mxgraph.bpmn.task;whiteSpace=wrap;rectStyle=rounded;size=10;html=1;container=1;expand=0;collapsible=0;taskMarker=user;" parent="UpswHM3UxFJulpg7v91b-2" vertex="1">
          <mxGeometry x="45" y="80" width="120" height="80" as="geometry" />
        </mxCell>
        <mxCell id="xxXPaRyj7qe5OcDNK9K2-314" value="timeout" style="fontSize=12;html=1;endArrow=blockThin;endFill=1;rounded=0;edgeStyle=orthogonalEdgeStyle;" parent="UpswHM3UxFJulpg7v91b-2" source="xxXPaRyj7qe5OcDNK9K2-313" target="xxXPaRyj7qe5OcDNK9K2-288" edge="1">
          <mxGeometry width="160" relative="1" as="geometry">
            <mxPoint x="400" y="130" as="sourcePoint" />
            <mxPoint x="560" y="130" as="targetPoint" />
            <Array as="points">
              <mxPoint x="945" y="35" />
            </Array>
          </mxGeometry>
        </mxCell>
        <mxCell id="xxXPaRyj7qe5OcDNK9K2-315" value="Get calculation result" style="points=[[0.25,0,0],[0.5,0,0],[0.75,0,0],[1,0.25,0],[1,0.5,0],[1,0.75,0],[0.75,1,0],[0.5,1,0],[0.25,1,0],[0,0.75,0],[0,0.5,0],[0,0.25,0]];shape=mxgraph.bpmn.task;whiteSpace=wrap;rectStyle=rounded;size=10;html=1;container=1;expand=0;collapsible=0;taskMarker=abstract;" parent="UpswHM3UxFJulpg7v91b-2" vertex="1">
          <mxGeometry x="1070" y="80" width="120" height="80" as="geometry" />
        </mxCell>
        <mxCell id="xxXPaRyj7qe5OcDNK9K2-316" value="" style="points=[[0.145,0.145,0],[0.5,0,0],[0.855,0.145,0],[1,0.5,0],[0.855,0.855,0],[0.5,1,0],[0.145,0.855,0],[0,0.5,0]];shape=mxgraph.bpmn.event;html=1;verticalLabelPosition=bottom;labelBackgroundColor=#ffffff;verticalAlign=top;align=center;perimeter=ellipsePerimeter;outlineConnect=0;aspect=fixed;outline=catching;symbol=message;" parent="UpswHM3UxFJulpg7v91b-2" vertex="1">
          <mxGeometry x="1244" y="95" width="50" height="50" as="geometry" />
        </mxCell>
        <mxCell id="xxXPaRyj7qe5OcDNK9K2-317" value="" style="edgeStyle=elbowEdgeStyle;fontSize=12;html=1;endArrow=blockThin;endFill=1;rounded=0;" parent="UpswHM3UxFJulpg7v91b-2" source="xxXPaRyj7qe5OcDNK9K2-286" target="xxXPaRyj7qe5OcDNK9K2-315" edge="1">
          <mxGeometry width="160" relative="1" as="geometry">
            <mxPoint x="400" y="130" as="sourcePoint" />
            <mxPoint x="560" y="130" as="targetPoint" />
          </mxGeometry>
        </mxCell>
        <mxCell id="xxXPaRyj7qe5OcDNK9K2-318" value="" style="edgeStyle=elbowEdgeStyle;fontSize=12;html=1;endArrow=blockThin;endFill=1;rounded=0;" parent="UpswHM3UxFJulpg7v91b-2" source="xxXPaRyj7qe5OcDNK9K2-315" target="xxXPaRyj7qe5OcDNK9K2-316" edge="1">
          <mxGeometry width="160" relative="1" as="geometry">
            <mxPoint x="400" y="130" as="sourcePoint" />
            <mxPoint x="560" y="130" as="targetPoint" />
          </mxGeometry>
        </mxCell>
        <mxCell id="xxXPaRyj7qe5OcDNK9K2-327" value="" style="points=[[0.145,0.145,0],[0.5,0,0],[0.855,0.145,0],[1,0.5,0],[0.855,0.855,0],[0.5,1,0],[0.145,0.855,0],[0,0.5,0]];shape=mxgraph.bpmn.event;html=1;verticalLabelPosition=bottom;labelBackgroundColor=#ffffff;verticalAlign=top;align=center;perimeter=ellipsePerimeter;outlineConnect=0;aspect=fixed;outline=end;symbol=terminate2;" parent="UpswHM3UxFJulpg7v91b-2" vertex="1">
          <mxGeometry x="1474" y="95" width="50" height="50" as="geometry" />
        </mxCell>
        <mxCell id="xxXPaRyj7qe5OcDNK9K2-328" value="" style="edgeStyle=elbowEdgeStyle;fontSize=12;html=1;endArrow=blockThin;endFill=1;rounded=0;" parent="UpswHM3UxFJulpg7v91b-2" source="xxXPaRyj7qe5OcDNK9K2-344" target="xxXPaRyj7qe5OcDNK9K2-327" edge="1">
          <mxGeometry width="160" relative="1" as="geometry">
            <mxPoint x="414" y="130" as="sourcePoint" />
            <mxPoint x="574" y="130" as="targetPoint" />
          </mxGeometry>
        </mxCell>
        <mxCell id="xxXPaRyj7qe5OcDNK9K2-342" value="PRODAFKO" style="shape=datastore;html=1;labelPosition=center;verticalLabelPosition=middle;align=center;verticalAlign=middle;" parent="UpswHM3UxFJulpg7v91b-2" vertex="1">
          <mxGeometry x="1304" y="20" width="40" height="40" as="geometry" />
        </mxCell>
        <mxCell id="xxXPaRyj7qe5OcDNK9K2-343" value="" style="fontSize=12;html=1;endFill=0;startFill=0;endSize=6;startSize=6;dashed=1;dashPattern=1 4;endArrow=openThin;startArrow=none;rounded=0;" parent="UpswHM3UxFJulpg7v91b-2" source="xxXPaRyj7qe5OcDNK9K2-344" target="xxXPaRyj7qe5OcDNK9K2-342" edge="1">
          <mxGeometry width="160" relative="1" as="geometry">
            <mxPoint x="1294" y="80" as="sourcePoint" />
            <mxPoint x="1284" y="30" as="targetPoint" />
          </mxGeometry>
        </mxCell>
        <mxCell id="xxXPaRyj7qe5OcDNK9K2-344" value="Update rack location and cutting details for positions" style="points=[[0.25,0,0],[0.5,0,0],[0.75,0,0],[1,0.25,0],[1,0.5,0],[1,0.75,0],[0.75,1,0],[0.5,1,0],[0.25,1,0],[0,0.75,0],[0,0.5,0],[0,0.25,0]];shape=mxgraph.bpmn.task;whiteSpace=wrap;rectStyle=rounded;size=10;html=1;container=1;expand=0;collapsible=0;taskMarker=abstract;" parent="UpswHM3UxFJulpg7v91b-2" vertex="1">
          <mxGeometry x="1324" y="80" width="120" height="80" as="geometry" />
        </mxCell>
        <mxCell id="xxXPaRyj7qe5OcDNK9K2-345" value="" style="edgeStyle=elbowEdgeStyle;fontSize=12;html=1;endArrow=blockThin;endFill=1;rounded=0;" parent="UpswHM3UxFJulpg7v91b-2" source="xxXPaRyj7qe5OcDNK9K2-316" target="xxXPaRyj7qe5OcDNK9K2-344" edge="1">
          <mxGeometry width="160" relative="1" as="geometry">
            <mxPoint x="1314" y="350" as="sourcePoint" />
            <mxPoint x="1484" y="350" as="targetPoint" />
          </mxGeometry>
        </mxCell>
        <mxCell id="xxXPaRyj7qe5OcDNK9K2-364" value="Rod, segment, rack, and cell" style="shape=note;whiteSpace=wrap;html=1;backgroundOutline=1;darkOpacity=0.05;size=15;align=left;spacingLeft=4;spacing=0;spacingTop=0;" parent="UpswHM3UxFJulpg7v91b-2" vertex="1">
          <mxGeometry x="1384" y="23" width="106" height="37" as="geometry" />
        </mxCell>
        <mxCell id="xxXPaRyj7qe5OcDNK9K2-365" value="" style="endArrow=none;dashed=1;html=1;dashPattern=1 3;strokeWidth=2;rounded=0;" parent="UpswHM3UxFJulpg7v91b-2" source="xxXPaRyj7qe5OcDNK9K2-344" target="xxXPaRyj7qe5OcDNK9K2-364" edge="1">
          <mxGeometry width="50" height="50" relative="1" as="geometry">
            <mxPoint x="1310" y="201" as="sourcePoint" />
            <mxPoint x="1360" y="151" as="targetPoint" />
          </mxGeometry>
        </mxCell>
        <mxCell id="o1t5ri_LKRyU3MXzn1um-13" value="Range of batches should be a list of specific batches.&lt;br&gt;Optional batch type for calculation." style="shape=note;whiteSpace=wrap;html=1;backgroundOutline=1;darkOpacity=0.05;size=15;align=left;spacingLeft=4;spacing=0;spacingTop=0;" vertex="1" parent="UpswHM3UxFJulpg7v91b-2">
          <mxGeometry x="190" y="23" width="150" height="75" as="geometry" />
        </mxCell>
        <mxCell id="o1t5ri_LKRyU3MXzn1um-14" value="" style="endArrow=none;dashed=1;html=1;dashPattern=1 3;strokeWidth=2;rounded=0;" edge="1" parent="UpswHM3UxFJulpg7v91b-2" target="o1t5ri_LKRyU3MXzn1um-13" source="xxXPaRyj7qe5OcDNK9K2-304">
          <mxGeometry width="50" height="50" relative="1" as="geometry">
            <mxPoint x="186" y="77" as="sourcePoint" />
            <mxPoint x="126" y="148" as="targetPoint" />
          </mxGeometry>
        </mxCell>
        <mxCell id="UpswHM3UxFJulpg7v91b-5" value="Kitting Service" style="text;html=1;strokeColor=none;fillColor=none;align=left;verticalAlign=middle;whiteSpace=wrap;rounded=0;fontSize=24;fontStyle=1;spacingLeft=3;" parent="1" vertex="1">
          <mxGeometry width="280" height="40" as="geometry" />
        </mxCell>
        <mxCell id="xxXPaRyj7qe5OcDNK9K2-1" value="AciesCore" style="swimlane;html=1;childLayout=stackLayout;resizeParent=1;resizeParentMax=0;horizontal=0;startSize=20;horizontalStack=0;whiteSpace=wrap;" parent="1" vertex="1">
          <mxGeometry y="400" width="1654" height="1700" as="geometry" />
        </mxCell>
        <mxCell id="xxXPaRyj7qe5OcDNK9K2-2" value="Kitting Service" style="swimlane;html=1;childLayout=stackLayout;resizeParent=1;resizeParentMax=0;horizontal=0;startSize=20;horizontalStack=0;whiteSpace=wrap;" parent="xxXPaRyj7qe5OcDNK9K2-1" vertex="1">
          <mxGeometry x="20" width="1634" height="1470" as="geometry" />
        </mxCell>
        <mxCell id="xxXPaRyj7qe5OcDNK9K2-3" value="API" style="swimlane;html=1;startSize=20;horizontal=0;" parent="xxXPaRyj7qe5OcDNK9K2-2" vertex="1">
          <mxGeometry x="20" width="1614" height="260" as="geometry" />
        </mxCell>
        <mxCell id="xxXPaRyj7qe5OcDNK9K2-111" value="" style="points=[[0.145,0.145,0],[0.5,0,0],[0.855,0.145,0],[1,0.5,0],[0.855,0.855,0],[0.5,1,0],[0.145,0.855,0],[0,0.5,0]];shape=mxgraph.bpmn.event;html=1;verticalLabelPosition=bottom;labelBackgroundColor=#ffffff;verticalAlign=top;align=center;perimeter=ellipsePerimeter;outlineConnect=0;aspect=fixed;outline=standard;symbol=message;" parent="xxXPaRyj7qe5OcDNK9K2-3" vertex="1">
          <mxGeometry x="60" y="40" width="50" height="50" as="geometry" />
        </mxCell>
        <mxCell id="xxXPaRyj7qe5OcDNK9K2-114" value="" style="edgeStyle=elbowEdgeStyle;fontSize=12;html=1;endArrow=blockThin;endFill=1;rounded=0;elbow=vertical;" parent="xxXPaRyj7qe5OcDNK9K2-3" source="xxXPaRyj7qe5OcDNK9K2-111" target="xxXPaRyj7qe5OcDNK9K2-118" edge="1">
          <mxGeometry width="160" relative="1" as="geometry">
            <mxPoint x="250" y="-130" as="sourcePoint" />
            <mxPoint x="410" y="-130" as="targetPoint" />
          </mxGeometry>
        </mxCell>
        <mxCell id="xxXPaRyj7qe5OcDNK9K2-277" value="" style="points=[[0.145,0.145,0],[0.5,0,0],[0.855,0.145,0],[1,0.5,0],[0.855,0.855,0],[0.5,1,0],[0.145,0.855,0],[0,0.5,0]];shape=mxgraph.bpmn.event;html=1;verticalLabelPosition=bottom;labelBackgroundColor=#ffffff;verticalAlign=top;align=center;perimeter=ellipsePerimeter;outlineConnect=0;aspect=fixed;outline=standard;symbol=message;" parent="xxXPaRyj7qe5OcDNK9K2-3" vertex="1">
          <mxGeometry x="845" y="40" width="50" height="50" as="geometry" />
        </mxCell>
        <mxCell id="xxXPaRyj7qe5OcDNK9K2-280" value="" style="edgeStyle=elbowEdgeStyle;fontSize=12;html=1;endArrow=blockThin;endFill=1;rounded=0;" parent="xxXPaRyj7qe5OcDNK9K2-3" source="xxXPaRyj7qe5OcDNK9K2-277" target="xxXPaRyj7qe5OcDNK9K2-282" edge="1">
          <mxGeometry width="160" relative="1" as="geometry">
            <mxPoint x="770" y="-140" as="sourcePoint" />
            <mxPoint x="917" y="135" as="targetPoint" />
          </mxGeometry>
        </mxCell>
        <mxCell id="xxXPaRyj7qe5OcDNK9K2-282" value="Get plan status" style="points=[[0.25,0,0],[0.5,0,0],[0.75,0,0],[1,0.25,0],[1,0.5,0],[1,0.75,0],[0.75,1,0],[0.5,1,0],[0.25,1,0],[0,0.75,0],[0,0.5,0],[0,0.25,0]];shape=mxgraph.bpmn.task;whiteSpace=wrap;rectStyle=rounded;size=10;html=1;container=1;expand=0;collapsible=0;taskMarker=abstract;" parent="xxXPaRyj7qe5OcDNK9K2-3" vertex="1">
          <mxGeometry x="810" y="110" width="120" height="80" as="geometry" />
        </mxCell>
        <mxCell id="xxXPaRyj7qe5OcDNK9K2-283" value="" style="points=[[0.145,0.145,0],[0.5,0,0],[0.855,0.145,0],[1,0.5,0],[0.855,0.855,0],[0.5,1,0],[0.145,0.855,0],[0,0.5,0]];shape=mxgraph.bpmn.event;html=1;verticalLabelPosition=bottom;labelBackgroundColor=#ffffff;verticalAlign=top;align=center;perimeter=ellipsePerimeter;outlineConnect=0;aspect=fixed;outline=end;symbol=message;" parent="xxXPaRyj7qe5OcDNK9K2-3" vertex="1">
          <mxGeometry x="960" y="125" width="50" height="50" as="geometry" />
        </mxCell>
        <mxCell id="xxXPaRyj7qe5OcDNK9K2-284" value="" style="edgeStyle=elbowEdgeStyle;fontSize=12;html=1;endArrow=blockThin;endFill=1;rounded=0;" parent="xxXPaRyj7qe5OcDNK9K2-3" source="xxXPaRyj7qe5OcDNK9K2-282" target="xxXPaRyj7qe5OcDNK9K2-283" edge="1">
          <mxGeometry width="160" relative="1" as="geometry">
            <mxPoint x="770" y="-140" as="sourcePoint" />
            <mxPoint x="917" y="135" as="targetPoint" />
          </mxGeometry>
        </mxCell>
        <mxCell id="xxXPaRyj7qe5OcDNK9K2-319" value="" style="points=[[0.145,0.145,0],[0.5,0,0],[0.855,0.145,0],[1,0.5,0],[0.855,0.855,0],[0.5,1,0],[0.145,0.855,0],[0,0.5,0]];shape=mxgraph.bpmn.event;html=1;verticalLabelPosition=bottom;labelBackgroundColor=#ffffff;verticalAlign=top;align=center;perimeter=ellipsePerimeter;outlineConnect=0;aspect=fixed;outline=standard;symbol=message;" parent="xxXPaRyj7qe5OcDNK9K2-3" vertex="1">
          <mxGeometry x="1085" y="40" width="50" height="50" as="geometry" />
        </mxCell>
        <mxCell id="xxXPaRyj7qe5OcDNK9K2-320" value="" style="edgeStyle=elbowEdgeStyle;fontSize=12;html=1;endArrow=blockThin;endFill=1;rounded=0;" parent="xxXPaRyj7qe5OcDNK9K2-3" source="xxXPaRyj7qe5OcDNK9K2-319" target="xxXPaRyj7qe5OcDNK9K2-321" edge="1">
          <mxGeometry width="160" relative="1" as="geometry">
            <mxPoint x="980" y="-115" as="sourcePoint" />
            <mxPoint x="1127" y="160" as="targetPoint" />
          </mxGeometry>
        </mxCell>
        <mxCell id="xxXPaRyj7qe5OcDNK9K2-321" value="Get plan result" style="points=[[0.25,0,0],[0.5,0,0],[0.75,0,0],[1,0.25,0],[1,0.5,0],[1,0.75,0],[0.75,1,0],[0.5,1,0],[0.25,1,0],[0,0.75,0],[0,0.5,0],[0,0.25,0]];shape=mxgraph.bpmn.task;whiteSpace=wrap;rectStyle=rounded;size=10;html=1;container=1;expand=0;collapsible=0;taskMarker=abstract;" parent="xxXPaRyj7qe5OcDNK9K2-3" vertex="1">
          <mxGeometry x="1050" y="115" width="120" height="80" as="geometry" />
        </mxCell>
        <mxCell id="xxXPaRyj7qe5OcDNK9K2-361" value="Return plan result" style="points=[[0.25,0,0],[0.5,0,0],[0.75,0,0],[1,0.25,0],[1,0.5,0],[1,0.75,0],[0.75,1,0],[0.5,1,0],[0.25,1,0],[0,0.75,0],[0,0.5,0],[0,0.25,0]];shape=mxgraph.bpmn.task;whiteSpace=wrap;rectStyle=rounded;size=10;html=1;container=1;expand=0;collapsible=0;taskMarker=send;" parent="xxXPaRyj7qe5OcDNK9K2-3" vertex="1">
          <mxGeometry x="1189" y="115" width="120" height="80" as="geometry" />
        </mxCell>
        <mxCell id="xxXPaRyj7qe5OcDNK9K2-323" value="" style="edgeStyle=elbowEdgeStyle;fontSize=12;html=1;endArrow=blockThin;endFill=1;rounded=0;" parent="xxXPaRyj7qe5OcDNK9K2-3" source="xxXPaRyj7qe5OcDNK9K2-321" target="xxXPaRyj7qe5OcDNK9K2-361" edge="1">
          <mxGeometry width="160" relative="1" as="geometry">
            <mxPoint x="980" y="-115" as="sourcePoint" />
            <mxPoint x="1190" y="155" as="targetPoint" />
          </mxGeometry>
        </mxCell>
        <mxCell id="xxXPaRyj7qe5OcDNK9K2-362" value="" style="points=[[0.145,0.145,0],[0.5,0,0],[0.855,0.145,0],[1,0.5,0],[0.855,0.855,0],[0.5,1,0],[0.145,0.855,0],[0,0.5,0]];shape=mxgraph.bpmn.event;html=1;verticalLabelPosition=bottom;labelBackgroundColor=#ffffff;verticalAlign=top;align=center;perimeter=ellipsePerimeter;outlineConnect=0;aspect=fixed;outline=end;symbol=terminate2;" parent="xxXPaRyj7qe5OcDNK9K2-3" vertex="1">
          <mxGeometry x="1330" y="130" width="50" height="50" as="geometry" />
        </mxCell>
        <mxCell id="xxXPaRyj7qe5OcDNK9K2-363" value="" style="edgeStyle=elbowEdgeStyle;fontSize=12;html=1;endArrow=blockThin;endFill=1;rounded=0;" parent="xxXPaRyj7qe5OcDNK9K2-3" source="xxXPaRyj7qe5OcDNK9K2-361" target="xxXPaRyj7qe5OcDNK9K2-362" edge="1">
          <mxGeometry width="160" relative="1" as="geometry">
            <mxPoint x="980" y="-115" as="sourcePoint" />
            <mxPoint x="1190" y="155" as="targetPoint" />
          </mxGeometry>
        </mxCell>
        <mxCell id="xxXPaRyj7qe5OcDNK9K2-118" value="Create plan" style="points=[[0.25,0,0],[0.5,0,0],[0.75,0,0],[1,0.25,0],[1,0.5,0],[1,0.75,0],[0.75,1,0],[0.5,1,0],[0.25,1,0],[0,0.75,0],[0,0.5,0],[0,0.25,0]];shape=mxgraph.bpmn.task;whiteSpace=wrap;rectStyle=rounded;size=10;html=1;container=0;expand=0;collapsible=0;taskMarker=send;verticalAlign=top;" parent="xxXPaRyj7qe5OcDNK9K2-3" vertex="1">
          <mxGeometry x="140" y="20" width="435" height="220" as="geometry" />
        </mxCell>
        <mxCell id="xxXPaRyj7qe5OcDNK9K2-121" value="" style="points=[[0.145,0.145,0],[0.5,0,0],[0.855,0.145,0],[1,0.5,0],[0.855,0.855,0],[0.5,1,0],[0.145,0.855,0],[0,0.5,0]];shape=mxgraph.bpmn.event;html=1;verticalLabelPosition=bottom;labelBackgroundColor=#ffffff;verticalAlign=top;align=center;perimeter=ellipsePerimeter;outlineConnect=0;aspect=fixed;outline=standard;symbol=general;" parent="xxXPaRyj7qe5OcDNK9K2-3" vertex="1">
          <mxGeometry x="154.99802816901408" y="63.996153846153845" width="42.30769230769231" height="42.30769230769231" as="geometry" />
        </mxCell>
        <mxCell id="xxXPaRyj7qe5OcDNK9K2-122" value="Plan" style="shape=mxgraph.bpmn.event;html=1;verticalLabelPosition=bottom;labelBackgroundColor=#ffffff;verticalAlign=top;align=center;outlineConnect=0;aspect=fixed;outline=end;symbol=signal;points=[[0.145,0.145,0],[0.5,0,0],[0.855,0.145,0],[1,0.5,0],[0.855,0.855,0],[0.5,1,0],[0.145,0.855,0],[0,0.5,0]];perimeter=ellipsePerimeter;" parent="xxXPaRyj7qe5OcDNK9K2-3" vertex="1">
          <mxGeometry x="155.00253521126757" y="153.84615384615387" width="42.30769230769231" height="42.30769230769231" as="geometry" />
        </mxCell>
        <mxCell id="xxXPaRyj7qe5OcDNK9K2-123" value="Use default Environment" style="points=[[0.25,0,0],[0.5,0,0],[0.75,0,0],[1,0.25,0],[1,0.5,0],[1,0.75,0],[0.75,1,0],[0.5,1,0],[0.25,1,0],[0,0.75,0],[0,0.5,0],[0,0.25,0]];shape=mxgraph.bpmn.task;whiteSpace=wrap;rectStyle=rounded;size=10;html=1;container=1;expand=0;collapsible=0;taskMarker=abstract;" parent="xxXPaRyj7qe5OcDNK9K2-3" vertex="1">
          <mxGeometry x="439.9954929577465" y="60.15384615384615" width="120" height="80" as="geometry" />
        </mxCell>
        <mxCell id="xxXPaRyj7qe5OcDNK9K2-125" value="Save plan" style="points=[[0.25,0,0],[0.5,0,0],[0.75,0,0],[1,0.25,0],[1,0.5,0],[1,0.75,0],[0.75,1,0],[0.5,1,0],[0.25,1,0],[0,0.75,0],[0,0.5,0],[0,0.25,0]];shape=mxgraph.bpmn.task;whiteSpace=wrap;rectStyle=rounded;size=10;html=1;container=1;expand=0;collapsible=0;taskMarker=abstract;" parent="xxXPaRyj7qe5OcDNK9K2-3" vertex="1">
          <mxGeometry x="224.99549295774648" y="135.00384615384615" width="120" height="80" as="geometry" />
        </mxCell>
        <mxCell id="xxXPaRyj7qe5OcDNK9K2-126" value="" style="edgeStyle=elbowEdgeStyle;fontSize=12;html=1;endArrow=blockThin;endFill=1;rounded=0;" parent="xxXPaRyj7qe5OcDNK9K2-3" source="xxXPaRyj7qe5OcDNK9K2-130" target="xxXPaRyj7qe5OcDNK9K2-125" edge="1">
          <mxGeometry width="160" relative="1" as="geometry">
            <mxPoint x="104.43661971830986" y="62.30769230769231" as="sourcePoint" />
            <mxPoint x="154.22535211267606" y="83.46153846153847" as="targetPoint" />
          </mxGeometry>
        </mxCell>
        <mxCell id="xxXPaRyj7qe5OcDNK9K2-127" value="" style="edgeStyle=elbowEdgeStyle;fontSize=12;html=1;endArrow=blockThin;endFill=1;rounded=0;" parent="xxXPaRyj7qe5OcDNK9K2-3" source="xxXPaRyj7qe5OcDNK9K2-125" target="xxXPaRyj7qe5OcDNK9K2-122" edge="1">
          <mxGeometry width="160" relative="1" as="geometry">
            <mxPoint x="104.43661971830986" y="62.30769230769231" as="sourcePoint" />
            <mxPoint x="154.22535211267606" y="83.46153846153847" as="targetPoint" />
          </mxGeometry>
        </mxCell>
        <mxCell id="xxXPaRyj7qe5OcDNK9K2-128" value="" style="points=[[0.25,0.25,0],[0.5,0,0],[0.75,0.25,0],[1,0.5,0],[0.75,0.75,0],[0.5,1,0],[0.25,0.75,0],[0,0.5,0]];shape=mxgraph.bpmn.gateway2;html=1;verticalLabelPosition=bottom;labelBackgroundColor=#ffffff;verticalAlign=top;align=center;perimeter=rhombusPerimeter;outlineConnect=0;outline=none;symbol=none;gwType=exclusive;" parent="xxXPaRyj7qe5OcDNK9K2-3" vertex="1">
          <mxGeometry x="360" y="60.150000000000006" width="50" height="50" as="geometry" />
        </mxCell>
        <mxCell id="xxXPaRyj7qe5OcDNK9K2-124" value="" style="edgeStyle=elbowEdgeStyle;fontSize=12;html=1;endArrow=blockThin;endFill=1;rounded=0;" parent="xxXPaRyj7qe5OcDNK9K2-3" source="xxXPaRyj7qe5OcDNK9K2-158" target="xxXPaRyj7qe5OcDNK9K2-128" edge="1">
          <mxGeometry width="160" relative="1" as="geometry">
            <mxPoint x="104.43661971830986" y="62.30769230769232" as="sourcePoint" />
            <mxPoint x="154.22535211267606" y="83.46153846153845" as="targetPoint" />
          </mxGeometry>
        </mxCell>
        <mxCell id="xxXPaRyj7qe5OcDNK9K2-129" value="" style="edgeStyle=elbowEdgeStyle;fontSize=12;html=1;endArrow=blockThin;endFill=1;rounded=0;elbow=vertical;" parent="xxXPaRyj7qe5OcDNK9K2-3" source="xxXPaRyj7qe5OcDNK9K2-128" target="xxXPaRyj7qe5OcDNK9K2-123" edge="1">
          <mxGeometry width="160" relative="1" as="geometry">
            <mxPoint x="104.43661971830986" y="62.30769230769232" as="sourcePoint" />
            <mxPoint x="154.22535211267606" y="83.46153846153845" as="targetPoint" />
          </mxGeometry>
        </mxCell>
        <mxCell id="xxXPaRyj7qe5OcDNK9K2-130" value="" style="points=[[0.25,0.25,0],[0.5,0,0],[0.75,0.25,0],[1,0.5,0],[0.75,0.75,0],[0.5,1,0],[0.25,0.75,0],[0,0.5,0]];shape=mxgraph.bpmn.gateway2;html=1;verticalLabelPosition=bottom;labelBackgroundColor=#ffffff;verticalAlign=top;align=center;perimeter=rhombusPerimeter;outlineConnect=0;outline=none;symbol=none;gwType=exclusive;" parent="xxXPaRyj7qe5OcDNK9K2-3" vertex="1">
          <mxGeometry x="360" y="150.00000000000003" width="50" height="50" as="geometry" />
        </mxCell>
        <mxCell id="xxXPaRyj7qe5OcDNK9K2-131" value="" style="fontSize=12;html=1;endArrow=blockThin;endFill=1;rounded=0;edgeStyle=elbowEdgeStyle;elbow=vertical;" parent="xxXPaRyj7qe5OcDNK9K2-3" source="xxXPaRyj7qe5OcDNK9K2-123" target="xxXPaRyj7qe5OcDNK9K2-130" edge="1">
          <mxGeometry width="160" relative="1" as="geometry">
            <mxPoint x="600" y="435" as="sourcePoint" />
            <mxPoint x="660" y="435" as="targetPoint" />
            <Array as="points">
              <mxPoint x="500" y="175" />
            </Array>
          </mxGeometry>
        </mxCell>
        <mxCell id="xxXPaRyj7qe5OcDNK9K2-133" value="found" style="edgeStyle=orthogonalEdgeStyle;fontSize=12;html=1;endArrow=blockThin;endFill=1;rounded=0;" parent="xxXPaRyj7qe5OcDNK9K2-3" source="xxXPaRyj7qe5OcDNK9K2-128" target="xxXPaRyj7qe5OcDNK9K2-130" edge="1">
          <mxGeometry width="160" relative="1" as="geometry">
            <mxPoint x="600" y="435" as="sourcePoint" />
            <mxPoint x="660" y="435" as="targetPoint" />
          </mxGeometry>
        </mxCell>
        <mxCell id="xxXPaRyj7qe5OcDNK9K2-353" value="" style="edgeStyle=orthogonalEdgeStyle;rounded=0;orthogonalLoop=1;jettySize=auto;html=1;" parent="xxXPaRyj7qe5OcDNK9K2-3" source="xxXPaRyj7qe5OcDNK9K2-121" target="xxXPaRyj7qe5OcDNK9K2-158" edge="1">
          <mxGeometry relative="1" as="geometry" />
        </mxCell>
        <mxCell id="xxXPaRyj7qe5OcDNK9K2-158" value="Check if request has Environment specified" style="points=[[0.25,0,0],[0.5,0,0],[0.75,0,0],[1,0.25,0],[1,0.5,0],[1,0.75,0],[0.75,1,0],[0.5,1,0],[0.25,1,0],[0,0.75,0],[0,0.5,0],[0,0.25,0]];shape=mxgraph.bpmn.task;whiteSpace=wrap;rectStyle=rounded;size=10;html=1;container=1;expand=0;collapsible=0;taskMarker=abstract;" parent="xxXPaRyj7qe5OcDNK9K2-3" vertex="1">
          <mxGeometry x="224.99549295774648" y="45.15384615384616" width="120" height="80" as="geometry" />
        </mxCell>
        <mxCell id="xxXPaRyj7qe5OcDNK9K2-162" value="Environment" style="shape=datastore;html=1;labelPosition=center;verticalLabelPosition=middle;align=center;verticalAlign=middle;" parent="xxXPaRyj7qe5OcDNK9K2-3" vertex="1">
          <mxGeometry x="510" y="170" width="40" height="40" as="geometry" />
        </mxCell>
        <mxCell id="xxXPaRyj7qe5OcDNK9K2-163" value="" style="fontSize=12;html=1;endFill=0;startFill=0;endSize=6;startSize=6;dashed=1;dashPattern=1 4;endArrow=openThin;startArrow=none;rounded=0;" parent="xxXPaRyj7qe5OcDNK9K2-3" source="xxXPaRyj7qe5OcDNK9K2-162" target="xxXPaRyj7qe5OcDNK9K2-123" edge="1">
          <mxGeometry width="160" relative="1" as="geometry">
            <mxPoint x="275" y="50" as="sourcePoint" />
            <mxPoint x="435" y="50" as="targetPoint" />
          </mxGeometry>
        </mxCell>
        <mxCell id="xxXPaRyj7qe5OcDNK9K2-305" value="Calculation Handler" style="swimlane;html=1;startSize=20;horizontal=0;" parent="xxXPaRyj7qe5OcDNK9K2-2" vertex="1">
          <mxGeometry x="20" y="260" width="1614" height="310" as="geometry" />
        </mxCell>
        <mxCell id="xxXPaRyj7qe5OcDNK9K2-308" value="Calculate plan" style="points=[[0.25,0,0],[0.5,0,0],[0.75,0,0],[1,0.25,0],[1,0.5,0],[1,0.75,0],[0.75,1,0],[0.5,1,0],[0.25,1,0],[0,0.75,0],[0,0.5,0],[0,0.25,0]];shape=mxgraph.bpmn.task;whiteSpace=wrap;rectStyle=rounded;size=10;html=1;container=0;expand=0;collapsible=0;taskMarker=script;gradientColor=none;verticalAlign=top;" parent="xxXPaRyj7qe5OcDNK9K2-305" vertex="1">
          <mxGeometry x="140" y="20" width="950" height="260" as="geometry" />
        </mxCell>
        <mxCell id="xxXPaRyj7qe5OcDNK9K2-306" value="Plan&lt;br&gt;[status=queued]" style="points=[[0.145,0.145,0],[0.5,0,0],[0.855,0.145,0],[1,0.5,0],[0.855,0.855,0],[0.5,1,0],[0.145,0.855,0],[0,0.5,0]];shape=mxgraph.bpmn.event;html=1;verticalLabelPosition=bottom;labelBackgroundColor=#ffffff;verticalAlign=top;align=center;perimeter=ellipsePerimeter;outlineConnect=0;aspect=fixed;outline=standard;symbol=signal;" parent="xxXPaRyj7qe5OcDNK9K2-305" vertex="1">
          <mxGeometry x="60" y="125" width="50" height="50" as="geometry" />
        </mxCell>
        <mxCell id="xxXPaRyj7qe5OcDNK9K2-309" value="" style="edgeStyle=elbowEdgeStyle;fontSize=12;html=1;endArrow=blockThin;endFill=1;rounded=0;" parent="xxXPaRyj7qe5OcDNK9K2-305" source="xxXPaRyj7qe5OcDNK9K2-306" target="xxXPaRyj7qe5OcDNK9K2-308" edge="1">
          <mxGeometry width="160" relative="1" as="geometry">
            <mxPoint x="-200" y="-400" as="sourcePoint" />
            <mxPoint x="-53" y="-125" as="targetPoint" />
          </mxGeometry>
        </mxCell>
        <mxCell id="xxXPaRyj7qe5OcDNK9K2-310" value="Plan" style="shape=mxgraph.bpmn.event;html=1;verticalLabelPosition=bottom;labelBackgroundColor=#ffffff;verticalAlign=top;align=center;outlineConnect=0;aspect=fixed;outline=end;symbol=signal;points=[[0.145,0.145,0],[0.5,0,0],[0.855,0.145,0],[1,0.5,0],[0.855,0.855,0],[0.5,1,0],[0.145,0.855,0],[0,0.5,0]];perimeter=ellipsePerimeter;" parent="xxXPaRyj7qe5OcDNK9K2-305" vertex="1">
          <mxGeometry x="1480.0025352112675" y="128.8461538461538" width="42.30769230769231" height="42.30769230769231" as="geometry" />
        </mxCell>
        <mxCell id="xxXPaRyj7qe5OcDNK9K2-311" value="" style="edgeStyle=elbowEdgeStyle;fontSize=12;html=1;endArrow=blockThin;endFill=1;rounded=0;" parent="xxXPaRyj7qe5OcDNK9K2-305" source="xxXPaRyj7qe5OcDNK9K2-333" target="xxXPaRyj7qe5OcDNK9K2-310" edge="1">
          <mxGeometry width="160" relative="1" as="geometry">
            <mxPoint x="940" y="95" as="sourcePoint" />
            <mxPoint x="539.2253521126761" y="-276.53846153846155" as="targetPoint" />
          </mxGeometry>
        </mxCell>
        <mxCell id="xxXPaRyj7qe5OcDNK9K2-330" value="Store calculation results" style="points=[[0.25,0,0],[0.5,0,0],[0.75,0,0],[1,0.25,0],[1,0.5,0],[1,0.75,0],[0.75,1,0],[0.5,1,0],[0.25,1,0],[0,0.75,0],[0,0.5,0],[0,0.25,0]];shape=mxgraph.bpmn.task;whiteSpace=wrap;rectStyle=rounded;size=10;html=1;container=1;expand=0;collapsible=0;taskMarker=abstract;" parent="xxXPaRyj7qe5OcDNK9K2-305" vertex="1">
          <mxGeometry x="1180" y="26.150000000000027" width="120" height="80" as="geometry" />
        </mxCell>
        <mxCell id="xxXPaRyj7qe5OcDNK9K2-331" value="" style="edgeStyle=elbowEdgeStyle;fontSize=12;html=1;endArrow=blockThin;endFill=1;rounded=0;elbow=vertical;" parent="xxXPaRyj7qe5OcDNK9K2-305" source="xxXPaRyj7qe5OcDNK9K2-308" target="xxXPaRyj7qe5OcDNK9K2-330" edge="1">
          <mxGeometry width="160" relative="1" as="geometry">
            <mxPoint x="370" y="699" as="sourcePoint" />
            <mxPoint x="570" y="699" as="targetPoint" />
          </mxGeometry>
        </mxCell>
        <mxCell id="xxXPaRyj7qe5OcDNK9K2-334" value="" style="edgeStyle=elbowEdgeStyle;fontSize=12;html=1;endArrow=blockThin;endFill=1;rounded=0;" parent="xxXPaRyj7qe5OcDNK9K2-305" source="xxXPaRyj7qe5OcDNK9K2-330" target="xxXPaRyj7qe5OcDNK9K2-333" edge="1">
          <mxGeometry width="160" relative="1" as="geometry">
            <mxPoint x="950" y="830" as="sourcePoint" />
            <mxPoint x="1230" y="811" as="targetPoint" />
          </mxGeometry>
        </mxCell>
        <mxCell id="xxXPaRyj7qe5OcDNK9K2-333" value="Set plan status to succeeded" style="points=[[0.25,0,0],[0.5,0,0],[0.75,0,0],[1,0.25,0],[1,0.5,0],[1,0.75,0],[0.75,1,0],[0.5,1,0],[0.25,1,0],[0,0.75,0],[0,0.5,0],[0,0.25,0]];shape=mxgraph.bpmn.task;whiteSpace=wrap;rectStyle=rounded;size=10;html=1;container=1;expand=0;collapsible=0;taskMarker=abstract;" parent="xxXPaRyj7qe5OcDNK9K2-305" vertex="1">
          <mxGeometry x="1320" y="26.15" width="120" height="80" as="geometry" />
        </mxCell>
        <mxCell id="xxXPaRyj7qe5OcDNK9K2-336" value="Set plan status to failed" style="points=[[0.25,0,0],[0.5,0,0],[0.75,0,0],[1,0.25,0],[1,0.5,0],[1,0.75,0],[0.75,1,0],[0.5,1,0],[0.25,1,0],[0,0.75,0],[0,0.5,0],[0,0.25,0]];shape=mxgraph.bpmn.task;whiteSpace=wrap;rectStyle=rounded;size=10;html=1;container=1;expand=0;collapsible=0;taskMarker=abstract;" parent="xxXPaRyj7qe5OcDNK9K2-305" vertex="1">
          <mxGeometry x="1320" y="192.50000000000003" width="120" height="80" as="geometry" />
        </mxCell>
        <mxCell id="xxXPaRyj7qe5OcDNK9K2-337" value="" style="edgeStyle=elbowEdgeStyle;fontSize=12;html=1;endArrow=blockThin;endFill=1;rounded=0;" parent="xxXPaRyj7qe5OcDNK9K2-305" source="xxXPaRyj7qe5OcDNK9K2-336" target="xxXPaRyj7qe5OcDNK9K2-310" edge="1">
          <mxGeometry width="160" relative="1" as="geometry">
            <mxPoint x="940" y="95" as="sourcePoint" />
            <mxPoint x="539.2253521126761" y="-276.53846153846155" as="targetPoint" />
          </mxGeometry>
        </mxCell>
        <mxCell id="xxXPaRyj7qe5OcDNK9K2-338" value="" style="edgeStyle=elbowEdgeStyle;fontSize=12;html=1;endArrow=blockThin;endFill=1;rounded=0;" parent="xxXPaRyj7qe5OcDNK9K2-305" source="xxXPaRyj7qe5OcDNK9K2-335" target="xxXPaRyj7qe5OcDNK9K2-336" edge="1">
          <mxGeometry width="160" relative="1" as="geometry">
            <mxPoint x="270" y="65" as="sourcePoint" />
            <mxPoint x="-130.7746478873239" y="-306.53846153846155" as="targetPoint" />
          </mxGeometry>
        </mxCell>
        <mxCell id="xxXPaRyj7qe5OcDNK9K2-335" value="" style="points=[[0.145,0.145,0],[0.5,0,0],[0.855,0.145,0],[1,0.5,0],[0.855,0.855,0],[0.5,1,0],[0.145,0.855,0],[0,0.5,0]];shape=mxgraph.bpmn.event;html=1;verticalLabelPosition=bottom;labelBackgroundColor=#ffffff;verticalAlign=top;align=center;perimeter=ellipsePerimeter;outlineConnect=0;aspect=fixed;outline=boundInt;symbol=error;" parent="xxXPaRyj7qe5OcDNK9K2-305" vertex="1">
          <mxGeometry x="1069.9983333333334" y="215" width="35" height="35" as="geometry" />
        </mxCell>
        <mxCell id="o1t5ri_LKRyU3MXzn1um-2" value="" style="points=[[0.145,0.145,0],[0.5,0,0],[0.855,0.145,0],[1,0.5,0],[0.855,0.855,0],[0.5,1,0],[0.145,0.855,0],[0,0.5,0]];shape=mxgraph.bpmn.event;html=1;verticalLabelPosition=bottom;labelBackgroundColor=#ffffff;verticalAlign=top;align=center;perimeter=ellipsePerimeter;outlineConnect=0;aspect=fixed;outline=standard;symbol=general;" vertex="1" parent="xxXPaRyj7qe5OcDNK9K2-305">
          <mxGeometry x="160" y="125" width="50" height="50" as="geometry" />
        </mxCell>
        <mxCell id="o1t5ri_LKRyU3MXzn1um-3" value="" style="points=[[0.145,0.145,0],[0.5,0,0],[0.855,0.145,0],[1,0.5,0],[0.855,0.855,0],[0.5,1,0],[0.145,0.855,0],[0,0.5,0]];shape=mxgraph.bpmn.event;html=1;verticalLabelPosition=bottom;labelBackgroundColor=#ffffff;verticalAlign=top;align=center;perimeter=ellipsePerimeter;outlineConnect=0;aspect=fixed;outline=end;symbol=terminate2;" vertex="1" parent="xxXPaRyj7qe5OcDNK9K2-305">
          <mxGeometry x="1030" y="125" width="50" height="50" as="geometry" />
        </mxCell>
        <mxCell id="o1t5ri_LKRyU3MXzn1um-4" value="" style="edgeStyle=elbowEdgeStyle;fontSize=12;html=1;endArrow=blockThin;endFill=1;rounded=0;" edge="1" parent="xxXPaRyj7qe5OcDNK9K2-305" source="o1t5ri_LKRyU3MXzn1um-32" target="o1t5ri_LKRyU3MXzn1um-34">
          <mxGeometry width="160" relative="1" as="geometry">
            <mxPoint x="639.9999999999998" y="132.5" as="sourcePoint" />
            <mxPoint x="200" y="160" as="targetPoint" />
          </mxGeometry>
        </mxCell>
        <mxCell id="o1t5ri_LKRyU3MXzn1um-16" value="" style="edgeStyle=elbowEdgeStyle;fontSize=12;html=1;endArrow=blockThin;endFill=1;rounded=0;" edge="1" parent="xxXPaRyj7qe5OcDNK9K2-305" source="o1t5ri_LKRyU3MXzn1um-2" target="o1t5ri_LKRyU3MXzn1um-22">
          <mxGeometry width="160" relative="1" as="geometry">
            <mxPoint x="300" y="775" as="sourcePoint" />
            <mxPoint x="279.9999999999998" y="115" as="targetPoint" />
          </mxGeometry>
        </mxCell>
        <mxCell id="o1t5ri_LKRyU3MXzn1um-31" value="" style="edgeStyle=elbowEdgeStyle;fontSize=12;html=1;endArrow=blockThin;endFill=1;rounded=0;" edge="1" parent="xxXPaRyj7qe5OcDNK9K2-305" source="o1t5ri_LKRyU3MXzn1um-22" target="o1t5ri_LKRyU3MXzn1um-32">
          <mxGeometry width="160" relative="1" as="geometry">
            <mxPoint x="540" y="793" as="sourcePoint" />
            <mxPoint x="519.9999999999998" y="132.5" as="targetPoint" />
          </mxGeometry>
        </mxCell>
        <mxCell id="o1t5ri_LKRyU3MXzn1um-32" value="&lt;span style=&quot;color: rgb(0, 0, 0); font-family: Helvetica; font-size: 12px; font-style: normal; font-variant-ligatures: normal; font-variant-caps: normal; font-weight: 400; letter-spacing: normal; orphans: 2; text-align: center; text-indent: 0px; text-transform: none; widows: 2; word-spacing: 0px; -webkit-text-stroke-width: 0px; background-color: rgb(251, 251, 251); text-decoration-thickness: initial; text-decoration-style: initial; text-decoration-color: initial; float: none; display: inline !important;&quot;&gt;Group components by machine&lt;/span&gt;" style="points=[[0.25,0,0],[0.5,0,0],[0.75,0,0],[1,0.25,0],[1,0.5,0],[1,0.75,0],[0.75,1,0],[0.5,1,0],[0.25,1,0],[0,0.75,0],[0,0.5,0],[0,0.25,0]];shape=mxgraph.bpmn.task;whiteSpace=wrap;rectStyle=rounded;size=10;html=1;container=1;expand=0;collapsible=0;taskMarker=abstract;" vertex="1" parent="xxXPaRyj7qe5OcDNK9K2-305">
          <mxGeometry x="520" y="110" width="120" height="80" as="geometry" />
        </mxCell>
        <mxCell id="o1t5ri_LKRyU3MXzn1um-44" value="" style="edgeStyle=elbowEdgeStyle;fontSize=12;html=1;endArrow=blockThin;endFill=1;rounded=0;" edge="1" parent="xxXPaRyj7qe5OcDNK9K2-305" source="o1t5ri_LKRyU3MXzn1um-34" target="o1t5ri_LKRyU3MXzn1um-3">
          <mxGeometry width="160" relative="1" as="geometry">
            <mxPoint x="639.9999999999998" y="132.5" as="sourcePoint" />
            <mxPoint x="200" y="160" as="targetPoint" />
          </mxGeometry>
        </mxCell>
        <mxCell id="o1t5ri_LKRyU3MXzn1um-22" value="&lt;span style=&quot;color: rgb(0, 0, 0); font-family: Helvetica; font-size: 12px; font-style: normal; font-variant-ligatures: normal; font-variant-caps: normal; font-weight: 400; letter-spacing: normal; orphans: 2; text-align: center; text-indent: 0px; text-transform: none; widows: 2; word-spacing: 0px; -webkit-text-stroke-width: 0px; background-color: rgb(251, 251, 251); text-decoration-thickness: initial; text-decoration-style: initial; text-decoration-color: initial; float: none; display: inline !important;&quot;&gt;Process position&lt;/span&gt;" style="points=[[0.25,0,0],[0.5,0,0],[0.75,0,0],[1,0.25,0],[1,0.5,0],[1,0.75,0],[0.75,1,0],[0.5,1,0],[0.25,1,0],[0,0.75,0],[0,0.5,0],[0,0.25,0]];shape=mxgraph.bpmn.task;whiteSpace=wrap;rectStyle=rounded;size=10;html=1;container=0;expand=0;collapsible=0;taskMarker=abstract;isLoopMultiSeq=1;verticalAlign=top;" vertex="1" parent="xxXPaRyj7qe5OcDNK9K2-305">
          <mxGeometry x="230" y="40" width="270" height="220" as="geometry" />
        </mxCell>
        <mxCell id="xxXPaRyj7qe5OcDNK9K2-372" value="Component" style="shape=datastore;html=1;labelPosition=center;verticalLabelPosition=middle;align=center;verticalAlign=middle;" parent="xxXPaRyj7qe5OcDNK9K2-305" vertex="1">
          <mxGeometry x="445" y="106" width="40" height="40" as="geometry" />
        </mxCell>
        <mxCell id="o1t5ri_LKRyU3MXzn1um-24" value="" style="points=[[0.145,0.145,0],[0.5,0,0],[0.855,0.145,0],[1,0.5,0],[0.855,0.855,0],[0.5,1,0],[0.145,0.855,0],[0,0.5,0]];shape=mxgraph.bpmn.event;html=1;verticalLabelPosition=bottom;labelBackgroundColor=#ffffff;verticalAlign=top;align=center;perimeter=ellipsePerimeter;outlineConnect=0;aspect=fixed;outline=standard;symbol=general;" vertex="1" parent="xxXPaRyj7qe5OcDNK9K2-305">
          <mxGeometry x="240" y="81" width="50" height="50" as="geometry" />
        </mxCell>
        <mxCell id="o1t5ri_LKRyU3MXzn1um-25" value="" style="points=[[0.145,0.145,0],[0.5,0,0],[0.855,0.145,0],[1,0.5,0],[0.855,0.855,0],[0.5,1,0],[0.145,0.855,0],[0,0.5,0]];shape=mxgraph.bpmn.event;html=1;verticalLabelPosition=bottom;labelBackgroundColor=#ffffff;verticalAlign=top;align=center;perimeter=ellipsePerimeter;outlineConnect=0;aspect=fixed;outline=end;symbol=terminate2;" vertex="1" parent="xxXPaRyj7qe5OcDNK9K2-305">
          <mxGeometry x="440" y="175.15000000000003" width="50" height="50" as="geometry" />
        </mxCell>
        <mxCell id="o1t5ri_LKRyU3MXzn1um-23" value="Get setup for components" style="points=[[0.25,0,0],[0.5,0,0],[0.75,0,0],[1,0.25,0],[1,0.5,0],[1,0.75,0],[0.75,1,0],[0.5,1,0],[0.25,1,0],[0,0.75,0],[0,0.5,0],[0,0.25,0]];shape=mxgraph.bpmn.task;whiteSpace=wrap;rectStyle=rounded;size=10;html=1;container=1;expand=0;collapsible=0;taskMarker=businessRule;" vertex="1" parent="xxXPaRyj7qe5OcDNK9K2-305">
          <mxGeometry x="305" y="160.15" width="120" height="80" as="geometry" />
        </mxCell>
        <mxCell id="o1t5ri_LKRyU3MXzn1um-26" value="" style="edgeStyle=elbowEdgeStyle;fontSize=12;html=1;endArrow=blockThin;endFill=1;rounded=0;" edge="1" parent="xxXPaRyj7qe5OcDNK9K2-305" source="o1t5ri_LKRyU3MXzn1um-24" target="o1t5ri_LKRyU3MXzn1um-47">
          <mxGeometry width="160" relative="1" as="geometry">
            <mxPoint x="490" y="148" as="sourcePoint" />
            <mxPoint x="760" y="100" as="targetPoint" />
          </mxGeometry>
        </mxCell>
        <mxCell id="o1t5ri_LKRyU3MXzn1um-27" value="" style="edgeStyle=elbowEdgeStyle;fontSize=12;html=1;endArrow=blockThin;endFill=1;rounded=0;" edge="1" parent="xxXPaRyj7qe5OcDNK9K2-305" source="o1t5ri_LKRyU3MXzn1um-23" target="o1t5ri_LKRyU3MXzn1um-25">
          <mxGeometry width="160" relative="1" as="geometry">
            <mxPoint x="490" y="148" as="sourcePoint" />
            <mxPoint x="760" y="100" as="targetPoint" />
          </mxGeometry>
        </mxCell>
        <mxCell id="o1t5ri_LKRyU3MXzn1um-28" value="" style="fontSize=12;html=1;endFill=0;startFill=0;endSize=6;startSize=6;dashed=1;dashPattern=1 4;endArrow=openThin;startArrow=none;rounded=0;" edge="1" parent="xxXPaRyj7qe5OcDNK9K2-305" source="xxXPaRyj7qe5OcDNK9K2-372" target="o1t5ri_LKRyU3MXzn1um-23">
          <mxGeometry width="160" relative="1" as="geometry">
            <mxPoint x="483" y="-105" as="sourcePoint" />
            <mxPoint x="230" y="186" as="targetPoint" />
          </mxGeometry>
        </mxCell>
        <mxCell id="o1t5ri_LKRyU3MXzn1um-47" value="Get components from plan BOM data" style="points=[[0.25,0,0],[0.5,0,0],[0.75,0,0],[1,0.25,0],[1,0.5,0],[1,0.75,0],[0.75,1,0],[0.5,1,0],[0.25,1,0],[0,0.75,0],[0,0.5,0],[0,0.25,0]];shape=mxgraph.bpmn.task;whiteSpace=wrap;rectStyle=rounded;size=10;html=1;container=1;expand=0;collapsible=0;taskMarker=abstract;" vertex="1" parent="xxXPaRyj7qe5OcDNK9K2-305">
          <mxGeometry x="305" y="65.99999999999997" width="120" height="80" as="geometry" />
        </mxCell>
        <mxCell id="o1t5ri_LKRyU3MXzn1um-48" value="" style="edgeStyle=elbowEdgeStyle;fontSize=12;html=1;endArrow=blockThin;endFill=1;rounded=0;" edge="1" parent="xxXPaRyj7qe5OcDNK9K2-305" source="o1t5ri_LKRyU3MXzn1um-47" target="o1t5ri_LKRyU3MXzn1um-23">
          <mxGeometry width="160" relative="1" as="geometry">
            <mxPoint x="490" y="148" as="sourcePoint" />
            <mxPoint x="760" y="100" as="targetPoint" />
          </mxGeometry>
        </mxCell>
        <mxCell id="o1t5ri_LKRyU3MXzn1um-34" value="&lt;span style=&quot;color: rgb(0, 0, 0); font-family: Helvetica; font-size: 12px; font-style: normal; font-variant-ligatures: normal; font-variant-caps: normal; font-weight: 400; letter-spacing: normal; orphans: 2; text-align: center; text-indent: 0px; text-transform: none; widows: 2; word-spacing: 0px; -webkit-text-stroke-width: 0px; background-color: rgb(251, 251, 251); text-decoration-thickness: initial; text-decoration-style: initial; text-decoration-color: initial; float: none; display: inline !important;&quot;&gt;Process machine&lt;/span&gt;" style="points=[[0.25,0,0],[0.5,0,0],[0.75,0,0],[1,0.25,0],[1,0.5,0],[1,0.75,0],[0.75,1,0],[0.5,1,0],[0.25,1,0],[0,0.75,0],[0,0.5,0],[0,0.25,0]];shape=mxgraph.bpmn.task;whiteSpace=wrap;rectStyle=rounded;size=10;html=1;container=0;expand=0;collapsible=0;taskMarker=abstract;isLoopMultiSeq=1;verticalAlign=top;" vertex="1" parent="xxXPaRyj7qe5OcDNK9K2-305">
          <mxGeometry x="660" y="40" width="350" height="220" as="geometry" />
        </mxCell>
        <mxCell id="o1t5ri_LKRyU3MXzn1um-35" value="Rackset" style="shape=datastore;html=1;labelPosition=center;verticalLabelPosition=middle;align=center;verticalAlign=middle;container=0;" vertex="1" parent="xxXPaRyj7qe5OcDNK9K2-305">
          <mxGeometry x="677" y="135.15" width="40" height="40" as="geometry" />
        </mxCell>
        <mxCell id="o1t5ri_LKRyU3MXzn1um-36" value="Rack" style="shape=datastore;html=1;labelPosition=center;verticalLabelPosition=middle;align=center;verticalAlign=middle;container=0;" vertex="1" parent="xxXPaRyj7qe5OcDNK9K2-305">
          <mxGeometry x="685" y="210" width="40" height="40" as="geometry" />
        </mxCell>
        <mxCell id="o1t5ri_LKRyU3MXzn1um-37" value="" style="points=[[0.145,0.145,0],[0.5,0,0],[0.855,0.145,0],[1,0.5,0],[0.855,0.855,0],[0.5,1,0],[0.145,0.855,0],[0,0.5,0]];shape=mxgraph.bpmn.event;html=1;verticalLabelPosition=bottom;labelBackgroundColor=#ffffff;verticalAlign=top;align=center;perimeter=ellipsePerimeter;outlineConnect=0;aspect=fixed;outline=standard;symbol=general;container=0;" vertex="1" parent="xxXPaRyj7qe5OcDNK9K2-305">
          <mxGeometry x="667" y="78.85" width="50" height="50" as="geometry" />
        </mxCell>
        <mxCell id="o1t5ri_LKRyU3MXzn1um-38" value="" style="points=[[0.145,0.145,0],[0.5,0,0],[0.855,0.145,0],[1,0.5,0],[0.855,0.855,0],[0.5,1,0],[0.145,0.855,0],[0,0.5,0]];shape=mxgraph.bpmn.event;html=1;verticalLabelPosition=bottom;labelBackgroundColor=#ffffff;verticalAlign=top;align=center;perimeter=ellipsePerimeter;outlineConnect=0;aspect=fixed;outline=end;symbol=terminate2;container=0;" vertex="1" parent="xxXPaRyj7qe5OcDNK9K2-305">
          <mxGeometry x="800" y="175.15000000000003" width="50" height="50" as="geometry" />
        </mxCell>
        <mxCell id="o1t5ri_LKRyU3MXzn1um-39" value="Determine rack set for components" style="points=[[0.25,0,0],[0.5,0,0],[0.75,0,0],[1,0.25,0],[1,0.5,0],[1,0.75,0],[0.75,1,0],[0.5,1,0],[0.25,1,0],[0,0.75,0],[0,0.5,0],[0,0.25,0]];shape=mxgraph.bpmn.task;whiteSpace=wrap;rectStyle=rounded;size=10;html=1;container=0;expand=0;collapsible=0;taskMarker=businessRule;" vertex="1" parent="xxXPaRyj7qe5OcDNK9K2-305">
          <mxGeometry x="735" y="63.85000000000001" width="120" height="80" as="geometry" />
        </mxCell>
        <mxCell id="o1t5ri_LKRyU3MXzn1um-40" value="" style="edgeStyle=elbowEdgeStyle;fontSize=12;html=1;endArrow=blockThin;endFill=1;rounded=0;" edge="1" parent="xxXPaRyj7qe5OcDNK9K2-305" source="o1t5ri_LKRyU3MXzn1um-37" target="o1t5ri_LKRyU3MXzn1um-39">
          <mxGeometry width="160" relative="1" as="geometry">
            <mxPoint x="917" y="165.5" as="sourcePoint" />
            <mxPoint x="1187" y="117.5" as="targetPoint" />
          </mxGeometry>
        </mxCell>
        <mxCell id="o1t5ri_LKRyU3MXzn1um-41" value="" style="edgeStyle=elbowEdgeStyle;fontSize=12;html=1;endArrow=blockThin;endFill=1;rounded=0;" edge="1" parent="xxXPaRyj7qe5OcDNK9K2-305" source="o1t5ri_LKRyU3MXzn1um-54" target="o1t5ri_LKRyU3MXzn1um-38">
          <mxGeometry width="160" relative="1" as="geometry">
            <mxPoint x="917" y="165.5" as="sourcePoint" />
            <mxPoint x="1187" y="117.5" as="targetPoint" />
          </mxGeometry>
        </mxCell>
        <mxCell id="o1t5ri_LKRyU3MXzn1um-42" value="" style="fontSize=12;html=1;endFill=0;startFill=0;endSize=6;startSize=6;dashed=1;dashPattern=1 4;endArrow=openThin;startArrow=none;rounded=0;" edge="1" parent="xxXPaRyj7qe5OcDNK9K2-305" source="o1t5ri_LKRyU3MXzn1um-35" target="o1t5ri_LKRyU3MXzn1um-39">
          <mxGeometry width="160" relative="1" as="geometry">
            <mxPoint x="910" y="-87.5" as="sourcePoint" />
            <mxPoint x="657" y="203.5" as="targetPoint" />
          </mxGeometry>
        </mxCell>
        <mxCell id="o1t5ri_LKRyU3MXzn1um-43" value="" style="fontSize=12;html=1;endFill=0;startFill=0;endSize=6;startSize=6;dashed=1;dashPattern=1 4;endArrow=openThin;startArrow=none;rounded=0;" edge="1" parent="xxXPaRyj7qe5OcDNK9K2-305" source="o1t5ri_LKRyU3MXzn1um-36" target="o1t5ri_LKRyU3MXzn1um-54">
          <mxGeometry width="160" relative="1" as="geometry">
            <mxPoint x="910" y="-87.5" as="sourcePoint" />
            <mxPoint x="657" y="203.5" as="targetPoint" />
            <Array as="points">
              <mxPoint x="830" y="240" />
            </Array>
          </mxGeometry>
        </mxCell>
        <mxCell id="xxXPaRyj7qe5OcDNK9K2-374" value="Setup" style="shape=datastore;html=1;labelPosition=center;verticalLabelPosition=middle;align=center;verticalAlign=middle;container=0;" parent="xxXPaRyj7qe5OcDNK9K2-305" vertex="1">
          <mxGeometry x="750" y="171.15" width="40" height="40" as="geometry" />
        </mxCell>
        <mxCell id="o1t5ri_LKRyU3MXzn1um-17" value="" style="fontSize=12;html=1;endFill=0;startFill=0;endSize=6;startSize=6;dashed=1;dashPattern=1 4;endArrow=openThin;startArrow=none;rounded=0;" edge="1" parent="xxXPaRyj7qe5OcDNK9K2-305" source="xxXPaRyj7qe5OcDNK9K2-374" target="o1t5ri_LKRyU3MXzn1um-52">
          <mxGeometry width="160" relative="1" as="geometry">
            <mxPoint x="487" y="-87.5" as="sourcePoint" />
            <mxPoint x="234" y="203.5" as="targetPoint" />
          </mxGeometry>
        </mxCell>
        <mxCell id="o1t5ri_LKRyU3MXzn1um-52" value="Execute cutting-stock-problem" style="points=[[0.25,0,0],[0.5,0,0],[0.75,0,0],[1,0.25,0],[1,0.5,0],[1,0.75,0],[0.75,1,0],[0.5,1,0],[0.25,1,0],[0,0.75,0],[0,0.5,0],[0,0.25,0]];shape=mxgraph.bpmn.task;whiteSpace=wrap;rectStyle=rounded;size=10;html=1;container=1;expand=0;collapsible=0;taskMarker=service;" vertex="1" parent="xxXPaRyj7qe5OcDNK9K2-305">
          <mxGeometry x="870" y="63.85000000000002" width="120" height="80" as="geometry" />
        </mxCell>
        <mxCell id="o1t5ri_LKRyU3MXzn1um-53" value="" style="edgeStyle=elbowEdgeStyle;fontSize=12;html=1;endArrow=blockThin;endFill=1;rounded=0;" edge="1" parent="xxXPaRyj7qe5OcDNK9K2-305" source="o1t5ri_LKRyU3MXzn1um-39" target="o1t5ri_LKRyU3MXzn1um-52">
          <mxGeometry width="160" relative="1" as="geometry">
            <mxPoint x="917" y="165.5" as="sourcePoint" />
            <mxPoint x="1187" y="117.5" as="targetPoint" />
          </mxGeometry>
        </mxCell>
        <mxCell id="o1t5ri_LKRyU3MXzn1um-54" value="Determine rack cell for components" style="points=[[0.25,0,0],[0.5,0,0],[0.75,0,0],[1,0.25,0],[1,0.5,0],[1,0.75,0],[0.75,1,0],[0.5,1,0],[0.25,1,0],[0,0.75,0],[0,0.5,0],[0,0.25,0]];shape=mxgraph.bpmn.task;whiteSpace=wrap;rectStyle=rounded;size=10;html=1;container=0;expand=0;collapsible=0;taskMarker=businessRule;" vertex="1" parent="xxXPaRyj7qe5OcDNK9K2-305">
          <mxGeometry x="870" y="160.14999999999998" width="120" height="80" as="geometry" />
        </mxCell>
        <mxCell id="o1t5ri_LKRyU3MXzn1um-55" value="" style="edgeStyle=elbowEdgeStyle;fontSize=12;html=1;endArrow=blockThin;endFill=1;rounded=0;" edge="1" parent="xxXPaRyj7qe5OcDNK9K2-305" source="o1t5ri_LKRyU3MXzn1um-52" target="o1t5ri_LKRyU3MXzn1um-54">
          <mxGeometry width="160" relative="1" as="geometry">
            <mxPoint x="917" y="165.5" as="sourcePoint" />
            <mxPoint x="1187" y="117.5" as="targetPoint" />
          </mxGeometry>
        </mxCell>
        <mxCell id="o1t5ri_LKRyU3MXzn1um-58" value="" style="fontSize=12;html=1;endFill=0;startFill=0;endSize=6;startSize=6;dashed=1;dashPattern=1 4;endArrow=openThin;startArrow=none;rounded=0;" edge="1" parent="xxXPaRyj7qe5OcDNK9K2-305" source="o1t5ri_LKRyU3MXzn1um-36" target="o1t5ri_LKRyU3MXzn1um-39">
          <mxGeometry width="160" relative="1" as="geometry">
            <mxPoint x="910" y="-87.5" as="sourcePoint" />
            <mxPoint x="657" y="203.5" as="targetPoint" />
          </mxGeometry>
        </mxCell>
        <mxCell id="xxXPaRyj7qe5OcDNK9K2-16" value="PlanCreated Listener" style="swimlane;html=1;startSize=20;horizontal=0;" parent="xxXPaRyj7qe5OcDNK9K2-2" vertex="1">
          <mxGeometry x="20" y="570" width="1614" height="250" as="geometry" />
        </mxCell>
        <mxCell id="xxXPaRyj7qe5OcDNK9K2-165" value="Plan&lt;br&gt;[Created]" style="points=[[0.145,0.145,0],[0.5,0,0],[0.855,0.145,0],[1,0.5,0],[0.855,0.855,0],[0.5,1,0],[0.145,0.855,0],[0,0.5,0]];shape=mxgraph.bpmn.event;html=1;verticalLabelPosition=bottom;labelBackgroundColor=#ffffff;verticalAlign=top;align=center;perimeter=ellipsePerimeter;outlineConnect=0;aspect=fixed;outline=standard;symbol=signal;" parent="xxXPaRyj7qe5OcDNK9K2-16" vertex="1">
          <mxGeometry x="60" y="40" width="50" height="50" as="geometry" />
        </mxCell>
        <mxCell id="xxXPaRyj7qe5OcDNK9K2-167" value="" style="fontSize=12;html=1;endArrow=blockThin;endFill=1;rounded=0;edgeStyle=orthogonalEdgeStyle;" parent="xxXPaRyj7qe5OcDNK9K2-16" source="xxXPaRyj7qe5OcDNK9K2-259" target="xxXPaRyj7qe5OcDNK9K2-237" edge="1">
          <mxGeometry width="160" relative="1" as="geometry">
            <mxPoint x="600" y="45" as="sourcePoint" />
            <mxPoint x="139.9954929577466" y="65" as="targetPoint" />
          </mxGeometry>
        </mxCell>
        <mxCell id="xxXPaRyj7qe5OcDNK9K2-175" value="" style="fontSize=12;html=1;endArrow=blockThin;endFill=1;rounded=0;edgeStyle=orthogonalEdgeStyle;" parent="xxXPaRyj7qe5OcDNK9K2-16" source="xxXPaRyj7qe5OcDNK9K2-237" target="xxXPaRyj7qe5OcDNK9K2-235" edge="1">
          <mxGeometry width="160" relative="1" as="geometry">
            <mxPoint x="259.9954929577466" y="175.0038461538461" as="sourcePoint" />
            <mxPoint x="289.9954929577466" y="175.0038461538461" as="targetPoint" />
          </mxGeometry>
        </mxCell>
        <mxCell id="xxXPaRyj7qe5OcDNK9K2-179" value="Plan" style="shape=mxgraph.bpmn.event;html=1;verticalLabelPosition=bottom;labelBackgroundColor=#ffffff;verticalAlign=top;align=center;outlineConnect=0;aspect=fixed;outline=end;symbol=signal;points=[[0.145,0.145,0],[0.5,0,0],[0.855,0.145,0],[1,0.5,0],[0.855,0.855,0],[0.5,1,0],[0.145,0.855,0],[0,0.5,0]];perimeter=ellipsePerimeter;" parent="xxXPaRyj7qe5OcDNK9K2-16" vertex="1">
          <mxGeometry x="590.0025352112675" y="153.84615384615378" width="42.30769230769231" height="42.30769230769231" as="geometry" />
        </mxCell>
        <mxCell id="xxXPaRyj7qe5OcDNK9K2-180" value="" style="edgeStyle=elbowEdgeStyle;fontSize=12;html=1;endArrow=blockThin;endFill=1;rounded=0;" parent="xxXPaRyj7qe5OcDNK9K2-16" source="xxXPaRyj7qe5OcDNK9K2-272" target="xxXPaRyj7qe5OcDNK9K2-179" edge="1">
          <mxGeometry width="160" relative="1" as="geometry">
            <mxPoint x="409.9954929577466" y="175.0038461538461" as="sourcePoint" />
            <mxPoint x="154.22535211267606" y="-196.53846153846155" as="targetPoint" />
          </mxGeometry>
        </mxCell>
        <mxCell id="xxXPaRyj7qe5OcDNK9K2-235" value="&lt;span style=&quot;color: rgb(0, 0, 0); font-family: Helvetica; font-size: 12px; font-style: normal; font-variant-ligatures: normal; font-variant-caps: normal; font-weight: 400; letter-spacing: normal; orphans: 2; text-align: center; text-indent: 0px; text-transform: none; widows: 2; word-spacing: 0px; -webkit-text-stroke-width: 0px; background-color: rgb(251, 251, 251); text-decoration-thickness: initial; text-decoration-style: initial; text-decoration-color: initial; float: none; display: inline !important;&quot;&gt;Start delayed failure handling&lt;/span&gt;" style="points=[[0.25,0,0],[0.5,0,0],[0.75,0,0],[1,0.25,0],[1,0.5,0],[1,0.75,0],[0.75,1,0],[0.5,1,0],[0.25,1,0],[0,0.75,0],[0,0.5,0],[0,0.25,0]];shape=mxgraph.bpmn.task;whiteSpace=wrap;rectStyle=rounded;size=10;html=1;container=1;expand=0;collapsible=0;taskMarker=send;" parent="xxXPaRyj7qe5OcDNK9K2-16" vertex="1">
          <mxGeometry x="290" y="135" width="120" height="80" as="geometry" />
        </mxCell>
        <mxCell id="xxXPaRyj7qe5OcDNK9K2-237" value="Request data from One service" style="points=[[0.25,0,0],[0.5,0,0],[0.75,0,0],[1,0.25,0],[1,0.5,0],[1,0.75,0],[0.75,1,0],[0.5,1,0],[0.25,1,0],[0,0.75,0],[0,0.5,0],[0,0.25,0]];shape=mxgraph.bpmn.task;whiteSpace=wrap;rectStyle=rounded;size=10;html=1;container=1;expand=0;collapsible=0;taskMarker=send;" parent="xxXPaRyj7qe5OcDNK9K2-16" vertex="1">
          <mxGeometry x="140" y="135" width="120" height="80" as="geometry" />
        </mxCell>
        <mxCell id="xxXPaRyj7qe5OcDNK9K2-258" value="" style="fontSize=12;html=1;endArrow=blockThin;endFill=1;rounded=0;edgeStyle=orthogonalEdgeStyle;" parent="xxXPaRyj7qe5OcDNK9K2-16" source="xxXPaRyj7qe5OcDNK9K2-165" target="xxXPaRyj7qe5OcDNK9K2-259" edge="1">
          <mxGeometry width="160" relative="1" as="geometry">
            <mxPoint x="150" y="705" as="sourcePoint" />
            <mxPoint x="240" y="775" as="targetPoint" />
          </mxGeometry>
        </mxCell>
        <mxCell id="xxXPaRyj7qe5OcDNK9K2-259" value="Sign S3 URLs for succeeded and failed callback responses" style="points=[[0.25,0,0],[0.5,0,0],[0.75,0,0],[1,0.25,0],[1,0.5,0],[1,0.75,0],[0.75,1,0],[0.5,1,0],[0.25,1,0],[0,0.75,0],[0,0.5,0],[0,0.25,0]];shape=mxgraph.bpmn.task;whiteSpace=wrap;rectStyle=rounded;size=10;html=1;container=1;expand=0;collapsible=0;taskMarker=abstract;" parent="xxXPaRyj7qe5OcDNK9K2-16" vertex="1">
          <mxGeometry x="140" y="25" width="120" height="80" as="geometry" />
        </mxCell>
        <mxCell id="xxXPaRyj7qe5OcDNK9K2-119" value="Plan" style="shape=datastore;html=1;labelPosition=center;verticalLabelPosition=middle;align=center;verticalAlign=middle;" parent="xxXPaRyj7qe5OcDNK9K2-16" vertex="1">
          <mxGeometry x="1170" y="45" width="40" height="40" as="geometry" />
        </mxCell>
        <mxCell id="xxXPaRyj7qe5OcDNK9K2-272" value="Set plan status to preparing" style="points=[[0.25,0,0],[0.5,0,0],[0.75,0,0],[1,0.25,0],[1,0.5,0],[1,0.75,0],[0.75,1,0],[0.5,1,0],[0.25,1,0],[0,0.75,0],[0,0.5,0],[0,0.25,0]];shape=mxgraph.bpmn.task;whiteSpace=wrap;rectStyle=rounded;size=10;html=1;container=1;expand=0;collapsible=0;taskMarker=abstract;" parent="xxXPaRyj7qe5OcDNK9K2-16" vertex="1">
          <mxGeometry x="435" y="135" width="120" height="80" as="geometry" />
        </mxCell>
        <mxCell id="xxXPaRyj7qe5OcDNK9K2-273" value="" style="edgeStyle=elbowEdgeStyle;fontSize=12;html=1;endArrow=blockThin;endFill=1;rounded=0;" parent="xxXPaRyj7qe5OcDNK9K2-16" source="xxXPaRyj7qe5OcDNK9K2-235" target="xxXPaRyj7qe5OcDNK9K2-272" edge="1">
          <mxGeometry width="160" relative="1" as="geometry">
            <mxPoint x="450" y="815" as="sourcePoint" />
            <mxPoint x="650" y="815" as="targetPoint" />
          </mxGeometry>
        </mxCell>
        <mxCell id="xxXPaRyj7qe5OcDNK9K2-274" value="" style="fontSize=12;html=1;endFill=0;startFill=0;endSize=6;startSize=6;dashed=1;dashPattern=1 4;endArrow=openThin;startArrow=none;rounded=0;" parent="xxXPaRyj7qe5OcDNK9K2-16" source="xxXPaRyj7qe5OcDNK9K2-272" target="xxXPaRyj7qe5OcDNK9K2-119" edge="1">
          <mxGeometry width="160" relative="1" as="geometry">
            <mxPoint x="275" y="-270" as="sourcePoint" />
            <mxPoint x="435" y="-270" as="targetPoint" />
          </mxGeometry>
        </mxCell>
        <mxCell id="xxXPaRyj7qe5OcDNK9K2-73" value="OneJobCreated Listener" style="swimlane;html=1;startSize=20;horizontal=0;" parent="xxXPaRyj7qe5OcDNK9K2-2" vertex="1">
          <mxGeometry x="20" y="820" width="1614" height="150" as="geometry" />
        </mxCell>
        <mxCell id="xxXPaRyj7qe5OcDNK9K2-184" value="one/Job&lt;br&gt;[Created]" style="points=[[0.145,0.145,0],[0.5,0,0],[0.855,0.145,0],[1,0.5,0],[0.855,0.855,0],[0.5,1,0],[0.145,0.855,0],[0,0.5,0]];shape=mxgraph.bpmn.event;html=1;verticalLabelPosition=bottom;labelBackgroundColor=#ffffff;verticalAlign=top;align=center;perimeter=ellipsePerimeter;outlineConnect=0;aspect=fixed;outline=standard;symbol=signal;" parent="xxXPaRyj7qe5OcDNK9K2-73" vertex="1">
          <mxGeometry x="380" y="43" width="50" height="50" as="geometry" />
        </mxCell>
        <mxCell id="xxXPaRyj7qe5OcDNK9K2-185" value="" style="points=[[0.145,0.145,0],[0.5,0,0],[0.855,0.145,0],[1,0.5,0],[0.855,0.855,0],[0.5,1,0],[0.145,0.855,0],[0,0.5,0]];shape=mxgraph.bpmn.event;html=1;verticalLabelPosition=bottom;labelBackgroundColor=#ffffff;verticalAlign=top;align=center;perimeter=ellipsePerimeter;outlineConnect=0;aspect=fixed;outline=end;symbol=terminate2;" parent="xxXPaRyj7qe5OcDNK9K2-73" vertex="1">
          <mxGeometry x="600" y="43" width="50" height="50" as="geometry" />
        </mxCell>
        <mxCell id="xxXPaRyj7qe5OcDNK9K2-186" value="" style="edgeStyle=elbowEdgeStyle;fontSize=12;html=1;endArrow=blockThin;endFill=1;rounded=0;" parent="xxXPaRyj7qe5OcDNK9K2-73" source="xxXPaRyj7qe5OcDNK9K2-191" target="xxXPaRyj7qe5OcDNK9K2-185" edge="1">
          <mxGeometry width="160" relative="1" as="geometry">
            <mxPoint x="394.4366197183099" y="-708.6923076923076" as="sourcePoint" />
            <mxPoint x="444.2253521126761" y="-687.5384615384615" as="targetPoint" />
          </mxGeometry>
        </mxCell>
        <mxCell id="xxXPaRyj7qe5OcDNK9K2-191" value="Attach one Job id to requesting plan" style="points=[[0.25,0,0],[0.5,0,0],[0.75,0,0],[1,0.25,0],[1,0.5,0],[1,0.75,0],[0.75,1,0],[0.5,1,0],[0.25,1,0],[0,0.75,0],[0,0.5,0],[0,0.25,0]];shape=mxgraph.bpmn.task;whiteSpace=wrap;rectStyle=rounded;size=10;html=1;container=1;expand=0;collapsible=0;taskMarker=abstract;" parent="xxXPaRyj7qe5OcDNK9K2-73" vertex="1">
          <mxGeometry x="459.9954929577465" y="28.003846153846098" width="120" height="80" as="geometry" />
        </mxCell>
        <mxCell id="xxXPaRyj7qe5OcDNK9K2-192" value="" style="edgeStyle=elbowEdgeStyle;fontSize=12;html=1;endArrow=blockThin;endFill=1;rounded=0;" parent="xxXPaRyj7qe5OcDNK9K2-73" source="xxXPaRyj7qe5OcDNK9K2-184" target="xxXPaRyj7qe5OcDNK9K2-191" edge="1">
          <mxGeometry width="160" relative="1" as="geometry">
            <mxPoint x="440" y="998" as="sourcePoint" />
            <mxPoint x="630" y="998" as="targetPoint" />
          </mxGeometry>
        </mxCell>
        <mxCell id="xxXPaRyj7qe5OcDNK9K2-42" value="PlanPrepareFailure Handler" style="swimlane;html=1;startSize=20;horizontal=0;" parent="xxXPaRyj7qe5OcDNK9K2-2" vertex="1">
          <mxGeometry x="20" y="970" width="1614" height="200" as="geometry" />
        </mxCell>
        <mxCell id="xxXPaRyj7qe5OcDNK9K2-176" value="" style="points=[[0.145,0.145,0],[0.5,0,0],[0.855,0.145,0],[1,0.5,0],[0.855,0.855,0],[0.5,1,0],[0.145,0.855,0],[0,0.5,0]];shape=mxgraph.bpmn.event;html=1;verticalLabelPosition=bottom;labelBackgroundColor=#ffffff;verticalAlign=top;align=center;perimeter=ellipsePerimeter;outlineConnect=0;aspect=fixed;outline=standard;symbol=message;" parent="xxXPaRyj7qe5OcDNK9K2-42" vertex="1">
          <mxGeometry x="325" y="35" width="50" height="50" as="geometry" />
        </mxCell>
        <mxCell id="xxXPaRyj7qe5OcDNK9K2-183" value="" style="edgeStyle=elbowEdgeStyle;fontSize=12;html=1;endArrow=blockThin;endFill=1;rounded=0;" parent="xxXPaRyj7qe5OcDNK9K2-42" source="xxXPaRyj7qe5OcDNK9K2-195" target="xxXPaRyj7qe5OcDNK9K2-190" edge="1">
          <mxGeometry width="160" relative="1" as="geometry">
            <mxPoint x="234.43661971830988" y="-571.6923076923076" as="sourcePoint" />
            <mxPoint x="789.9999999999998" y="60" as="targetPoint" />
          </mxGeometry>
        </mxCell>
        <mxCell id="xxXPaRyj7qe5OcDNK9K2-187" value="Get current plan status" style="points=[[0.25,0,0],[0.5,0,0],[0.75,0,0],[1,0.25,0],[1,0.5,0],[1,0.75,0],[0.75,1,0],[0.5,1,0],[0.25,1,0],[0,0.75,0],[0,0.5,0],[0,0.25,0]];shape=mxgraph.bpmn.task;whiteSpace=wrap;rectStyle=rounded;size=10;html=1;container=1;expand=0;collapsible=0;taskMarker=abstract;" parent="xxXPaRyj7qe5OcDNK9K2-42" vertex="1">
          <mxGeometry x="509.9954929577465" y="20.003846153846098" width="120" height="80" as="geometry" />
        </mxCell>
        <mxCell id="xxXPaRyj7qe5OcDNK9K2-188" value="" style="edgeStyle=elbowEdgeStyle;fontSize=12;html=1;endArrow=blockThin;endFill=1;rounded=0;" parent="xxXPaRyj7qe5OcDNK9K2-42" source="xxXPaRyj7qe5OcDNK9K2-199" target="xxXPaRyj7qe5OcDNK9K2-187" edge="1">
          <mxGeometry width="160" relative="1" as="geometry">
            <mxPoint x="425" y="851" as="sourcePoint" />
            <mxPoint x="710" y="850" as="targetPoint" />
          </mxGeometry>
        </mxCell>
        <mxCell id="xxXPaRyj7qe5OcDNK9K2-190" value="Plan" style="shape=mxgraph.bpmn.event;html=1;verticalLabelPosition=bottom;labelBackgroundColor=#ffffff;verticalAlign=top;align=center;outlineConnect=0;aspect=fixed;outline=end;symbol=signal;points=[[0.145,0.145,0],[0.5,0,0],[0.855,0.145,0],[1,0.5,0],[0.855,0.855,0],[0.5,1,0],[0.145,0.855,0],[0,0.5,0]];perimeter=ellipsePerimeter;" parent="xxXPaRyj7qe5OcDNK9K2-42" vertex="1">
          <mxGeometry x="758.8425352112675" y="124.54615384615379" width="42.30769230769231" height="42.30769230769231" as="geometry" />
        </mxCell>
        <mxCell id="xxXPaRyj7qe5OcDNK9K2-195" value="Set plan status to failed" style="points=[[0.25,0,0],[0.5,0,0],[0.75,0,0],[1,0.25,0],[1,0.5,0],[1,0.75,0],[0.75,1,0],[0.5,1,0],[0.25,1,0],[0,0.75,0],[0,0.5,0],[0,0.25,0]];shape=mxgraph.bpmn.task;whiteSpace=wrap;rectStyle=rounded;size=10;html=1;container=1;expand=0;collapsible=0;taskMarker=abstract;" parent="xxXPaRyj7qe5OcDNK9K2-42" vertex="1">
          <mxGeometry x="719.9954929577465" y="21.003846153846098" width="120" height="80" as="geometry" />
        </mxCell>
        <mxCell id="xxXPaRyj7qe5OcDNK9K2-196" value="" style="edgeStyle=elbowEdgeStyle;fontSize=12;html=1;endArrow=blockThin;endFill=1;rounded=0;elbow=vertical;" parent="xxXPaRyj7qe5OcDNK9K2-42" source="xxXPaRyj7qe5OcDNK9K2-201" target="xxXPaRyj7qe5OcDNK9K2-195" edge="1">
          <mxGeometry width="160" relative="1" as="geometry">
            <mxPoint x="600" y="850" as="sourcePoint" />
            <mxPoint x="870" y="850" as="targetPoint" />
          </mxGeometry>
        </mxCell>
        <mxCell id="xxXPaRyj7qe5OcDNK9K2-198" value="" style="edgeStyle=elbowEdgeStyle;fontSize=12;html=1;endArrow=blockThin;endFill=1;rounded=0;" parent="xxXPaRyj7qe5OcDNK9K2-42" source="xxXPaRyj7qe5OcDNK9K2-176" target="xxXPaRyj7qe5OcDNK9K2-199" edge="1">
          <mxGeometry width="160" relative="1" as="geometry">
            <mxPoint x="415" y="851" as="sourcePoint" />
            <mxPoint x="520" y="850" as="targetPoint" />
          </mxGeometry>
        </mxCell>
        <mxCell id="xxXPaRyj7qe5OcDNK9K2-199" value="" style="points=[[0.145,0.145,0],[0.5,0,0],[0.855,0.145,0],[1,0.5,0],[0.855,0.855,0],[0.5,1,0],[0.145,0.855,0],[0,0.5,0]];shape=mxgraph.bpmn.event;html=1;verticalLabelPosition=bottom;labelBackgroundColor=#ffffff;verticalAlign=top;align=center;perimeter=ellipsePerimeter;outlineConnect=0;aspect=fixed;outline=eventNonint;symbol=timer;" parent="xxXPaRyj7qe5OcDNK9K2-42" vertex="1">
          <mxGeometry x="440" y="35" width="50" height="50" as="geometry" />
        </mxCell>
        <mxCell id="xxXPaRyj7qe5OcDNK9K2-200" value="" style="edgeStyle=elbowEdgeStyle;fontSize=12;html=1;endArrow=blockThin;endFill=1;rounded=0;" parent="xxXPaRyj7qe5OcDNK9K2-42" source="xxXPaRyj7qe5OcDNK9K2-187" target="xxXPaRyj7qe5OcDNK9K2-201" edge="1">
          <mxGeometry width="160" relative="1" as="geometry">
            <mxPoint x="670" y="850" as="sourcePoint" />
            <mxPoint x="867" y="850" as="targetPoint" />
          </mxGeometry>
        </mxCell>
        <mxCell id="xxXPaRyj7qe5OcDNK9K2-201" value="" style="points=[[0.25,0.25,0],[0.5,0,0],[0.75,0.25,0],[1,0.5,0],[0.75,0.75,0],[0.5,1,0],[0.25,0.75,0],[0,0.5,0]];shape=mxgraph.bpmn.gateway2;html=1;verticalLabelPosition=bottom;labelBackgroundColor=#ffffff;verticalAlign=top;align=center;perimeter=rhombusPerimeter;outlineConnect=0;outline=none;symbol=none;" parent="xxXPaRyj7qe5OcDNK9K2-42" vertex="1">
          <mxGeometry x="650" y="35" width="50" height="50" as="geometry" />
        </mxCell>
        <mxCell id="xxXPaRyj7qe5OcDNK9K2-204" value="" style="points=[[0.145,0.145,0],[0.5,0,0],[0.855,0.145,0],[1,0.5,0],[0.855,0.855,0],[0.5,1,0],[0.145,0.855,0],[0,0.5,0]];shape=mxgraph.bpmn.event;html=1;verticalLabelPosition=bottom;labelBackgroundColor=#ffffff;verticalAlign=top;align=center;perimeter=ellipsePerimeter;outlineConnect=0;aspect=fixed;outline=end;symbol=terminate2;" parent="xxXPaRyj7qe5OcDNK9K2-42" vertex="1">
          <mxGeometry x="650" y="120.7" width="50" height="50" as="geometry" />
        </mxCell>
        <mxCell id="xxXPaRyj7qe5OcDNK9K2-205" value="succeeded" style="edgeStyle=elbowEdgeStyle;fontSize=12;html=1;endArrow=blockThin;endFill=1;rounded=0;" parent="xxXPaRyj7qe5OcDNK9K2-42" source="xxXPaRyj7qe5OcDNK9K2-201" target="xxXPaRyj7qe5OcDNK9K2-204" edge="1">
          <mxGeometry width="160" relative="1" as="geometry">
            <mxPoint x="670" y="850" as="sourcePoint" />
            <mxPoint x="867" y="850" as="targetPoint" />
          </mxGeometry>
        </mxCell>
        <mxCell id="xxXPaRyj7qe5OcDNK9K2-251" value="OneCallbackFailed Listener" style="swimlane;html=1;startSize=20;horizontal=0;" parent="xxXPaRyj7qe5OcDNK9K2-2" vertex="1">
          <mxGeometry x="20" y="1170" width="1614" height="140" as="geometry" />
        </mxCell>
        <mxCell id="xxXPaRyj7qe5OcDNK9K2-253" value="S3Event&lt;br&gt;[Failed]" style="points=[[0.145,0.145,0],[0.5,0,0],[0.855,0.145,0],[1,0.5,0],[0.855,0.855,0],[0.5,1,0],[0.145,0.855,0],[0,0.5,0]];shape=mxgraph.bpmn.event;html=1;verticalLabelPosition=bottom;labelBackgroundColor=#ffffff;verticalAlign=top;align=center;perimeter=ellipsePerimeter;outlineConnect=0;aspect=fixed;outline=standard;symbol=signal;" parent="xxXPaRyj7qe5OcDNK9K2-251" vertex="1">
          <mxGeometry x="706" y="40" width="50" height="50" as="geometry" />
        </mxCell>
        <mxCell id="xxXPaRyj7qe5OcDNK9K2-261" value="Plan" style="shape=mxgraph.bpmn.event;html=1;verticalLabelPosition=bottom;labelBackgroundColor=#ffffff;verticalAlign=top;align=center;outlineConnect=0;aspect=fixed;outline=end;symbol=signal;points=[[0.145,0.145,0],[0.5,0,0],[0.855,0.145,0],[1,0.5,0],[0.855,0.855,0],[0.5,1,0],[0.145,0.855,0],[0,0.5,0]];perimeter=ellipsePerimeter;" parent="xxXPaRyj7qe5OcDNK9K2-251" vertex="1">
          <mxGeometry x="926.0025352112675" y="43.84615384615381" width="42.30769230769231" height="42.30769230769231" as="geometry" />
        </mxCell>
        <mxCell id="xxXPaRyj7qe5OcDNK9K2-262" value="Set plan status to failed" style="points=[[0.25,0,0],[0.5,0,0],[0.75,0,0],[1,0.25,0],[1,0.5,0],[1,0.75,0],[0.75,1,0],[0.5,1,0],[0.25,1,0],[0,0.75,0],[0,0.5,0],[0,0.25,0]];shape=mxgraph.bpmn.task;whiteSpace=wrap;rectStyle=rounded;size=10;html=1;container=1;expand=0;collapsible=0;taskMarker=abstract;" parent="xxXPaRyj7qe5OcDNK9K2-251" vertex="1">
          <mxGeometry x="782.9954929577465" y="25.003846153846098" width="120" height="80" as="geometry" />
        </mxCell>
        <mxCell id="xxXPaRyj7qe5OcDNK9K2-260" value="" style="edgeStyle=elbowEdgeStyle;fontSize=12;html=1;endArrow=blockThin;endFill=1;rounded=0;" parent="xxXPaRyj7qe5OcDNK9K2-251" source="xxXPaRyj7qe5OcDNK9K2-262" target="xxXPaRyj7qe5OcDNK9K2-261" edge="1">
          <mxGeometry width="160" relative="1" as="geometry">
            <mxPoint x="321.4366197183099" y="-577.6923076923076" as="sourcePoint" />
            <mxPoint x="876.9999999999998" y="54" as="targetPoint" />
          </mxGeometry>
        </mxCell>
        <mxCell id="xxXPaRyj7qe5OcDNK9K2-263" value="" style="edgeStyle=elbowEdgeStyle;fontSize=12;html=1;endArrow=blockThin;endFill=1;rounded=0;elbow=vertical;" parent="xxXPaRyj7qe5OcDNK9K2-251" source="xxXPaRyj7qe5OcDNK9K2-253" target="xxXPaRyj7qe5OcDNK9K2-262" edge="1">
          <mxGeometry width="160" relative="1" as="geometry">
            <mxPoint x="787" y="54" as="sourcePoint" />
            <mxPoint x="957" y="844" as="targetPoint" />
          </mxGeometry>
        </mxCell>
        <mxCell id="xxXPaRyj7qe5OcDNK9K2-252" value="OneCallback Listener" style="swimlane;html=1;startSize=20;horizontal=0;" parent="xxXPaRyj7qe5OcDNK9K2-2" vertex="1">
          <mxGeometry x="20" y="1310" width="1614" height="160" as="geometry" />
        </mxCell>
        <mxCell id="xxXPaRyj7qe5OcDNK9K2-254" value="S3Event&lt;br&gt;[Succeeded]" style="points=[[0.145,0.145,0],[0.5,0,0],[0.855,0.145,0],[1,0.5,0],[0.855,0.855,0],[0.5,1,0],[0.145,0.855,0],[0,0.5,0]];shape=mxgraph.bpmn.event;html=1;verticalLabelPosition=bottom;labelBackgroundColor=#ffffff;verticalAlign=top;align=center;perimeter=ellipsePerimeter;outlineConnect=0;aspect=fixed;outline=standard;symbol=signal;" parent="xxXPaRyj7qe5OcDNK9K2-252" vertex="1">
          <mxGeometry x="752" y="50" width="50" height="50" as="geometry" />
        </mxCell>
        <mxCell id="xxXPaRyj7qe5OcDNK9K2-265" value="Plan" style="shape=mxgraph.bpmn.event;html=1;verticalLabelPosition=bottom;labelBackgroundColor=#ffffff;verticalAlign=top;align=center;outlineConnect=0;aspect=fixed;outline=end;symbol=signal;points=[[0.145,0.145,0],[0.5,0,0],[0.855,0.145,0],[1,0.5,0],[0.855,0.855,0],[0.5,1,0],[0.145,0.855,0],[0,0.5,0]];perimeter=ellipsePerimeter;" parent="xxXPaRyj7qe5OcDNK9K2-252" vertex="1">
          <mxGeometry x="1240.0025352112675" y="53.84615384615381" width="42.30769230769231" height="42.30769230769231" as="geometry" />
        </mxCell>
        <mxCell id="xxXPaRyj7qe5OcDNK9K2-266" value="Add BOM data to plan" style="points=[[0.25,0,0],[0.5,0,0],[0.75,0,0],[1,0.25,0],[1,0.5,0],[1,0.75,0],[0.75,1,0],[0.5,1,0],[0.25,1,0],[0,0.75,0],[0,0.5,0],[0,0.25,0]];shape=mxgraph.bpmn.task;whiteSpace=wrap;rectStyle=rounded;size=10;html=1;container=1;expand=0;collapsible=0;taskMarker=abstract;" parent="xxXPaRyj7qe5OcDNK9K2-252" vertex="1">
          <mxGeometry x="959.9954929577465" y="35.0038461538461" width="120" height="80" as="geometry" />
        </mxCell>
        <mxCell id="xxXPaRyj7qe5OcDNK9K2-267" value="" style="edgeStyle=elbowEdgeStyle;fontSize=12;html=1;endArrow=blockThin;endFill=1;rounded=0;" parent="xxXPaRyj7qe5OcDNK9K2-252" source="xxXPaRyj7qe5OcDNK9K2-270" target="xxXPaRyj7qe5OcDNK9K2-265" edge="1">
          <mxGeometry width="160" relative="1" as="geometry">
            <mxPoint x="431.4366197183099" y="-557.6923076923076" as="sourcePoint" />
            <mxPoint x="986.9999999999998" y="74" as="targetPoint" />
          </mxGeometry>
        </mxCell>
        <mxCell id="xxXPaRyj7qe5OcDNK9K2-268" value="" style="edgeStyle=elbowEdgeStyle;fontSize=12;html=1;endArrow=blockThin;endFill=1;rounded=0;elbow=vertical;" parent="xxXPaRyj7qe5OcDNK9K2-252" source="xxXPaRyj7qe5OcDNK9K2-294" target="xxXPaRyj7qe5OcDNK9K2-266" edge="1">
          <mxGeometry width="160" relative="1" as="geometry">
            <mxPoint x="860" y="75" as="sourcePoint" />
            <mxPoint x="1047" y="864" as="targetPoint" />
          </mxGeometry>
        </mxCell>
        <mxCell id="xxXPaRyj7qe5OcDNK9K2-270" value="Set plan status to queued for processing" style="points=[[0.25,0,0],[0.5,0,0],[0.75,0,0],[1,0.25,0],[1,0.5,0],[1,0.75,0],[0.75,1,0],[0.5,1,0],[0.25,1,0],[0,0.75,0],[0,0.5,0],[0,0.25,0]];shape=mxgraph.bpmn.task;whiteSpace=wrap;rectStyle=rounded;size=10;html=1;container=1;expand=0;collapsible=0;taskMarker=abstract;" parent="xxXPaRyj7qe5OcDNK9K2-252" vertex="1">
          <mxGeometry x="1099.9954929577466" y="35.0038461538461" width="120" height="80" as="geometry" />
        </mxCell>
        <mxCell id="xxXPaRyj7qe5OcDNK9K2-271" value="" style="edgeStyle=elbowEdgeStyle;fontSize=12;html=1;endArrow=blockThin;endFill=1;rounded=0;" parent="xxXPaRyj7qe5OcDNK9K2-252" source="xxXPaRyj7qe5OcDNK9K2-266" target="xxXPaRyj7qe5OcDNK9K2-270" edge="1">
          <mxGeometry width="160" relative="1" as="geometry">
            <mxPoint x="1070" y="1505" as="sourcePoint" />
            <mxPoint x="1260" y="1505" as="targetPoint" />
          </mxGeometry>
        </mxCell>
        <mxCell id="xxXPaRyj7qe5OcDNK9K2-295" value="" style="edgeStyle=elbowEdgeStyle;fontSize=12;html=1;endArrow=blockThin;endFill=1;rounded=0;elbow=vertical;" parent="xxXPaRyj7qe5OcDNK9K2-252" source="xxXPaRyj7qe5OcDNK9K2-254" target="xxXPaRyj7qe5OcDNK9K2-294" edge="1">
          <mxGeometry width="160" relative="1" as="geometry">
            <mxPoint x="842" y="1505" as="sourcePoint" />
            <mxPoint x="1000" y="1505" as="targetPoint" />
          </mxGeometry>
        </mxCell>
        <mxCell id="xxXPaRyj7qe5OcDNK9K2-294" value="Get requested one data" style="points=[[0.25,0,0],[0.5,0,0],[0.75,0,0],[1,0.25,0],[1,0.5,0],[1,0.75,0],[0.75,1,0],[0.5,1,0],[0.25,1,0],[0,0.75,0],[0,0.5,0],[0,0.25,0]];shape=mxgraph.bpmn.task;whiteSpace=wrap;rectStyle=rounded;size=10;html=1;container=1;expand=0;collapsible=0;taskMarker=abstract;" parent="xxXPaRyj7qe5OcDNK9K2-252" vertex="1">
          <mxGeometry x="819.9954929577465" y="35.0038461538461" width="120" height="80" as="geometry" />
        </mxCell>
        <mxCell id="xxXPaRyj7qe5OcDNK9K2-177" value="" style="dashed=1;dashPattern=8 4;endArrow=blockThin;endFill=1;startArrow=oval;startFill=0;endSize=6;startSize=4;html=1;rounded=0;" parent="xxXPaRyj7qe5OcDNK9K2-2" source="xxXPaRyj7qe5OcDNK9K2-235" target="xxXPaRyj7qe5OcDNK9K2-176" edge="1">
          <mxGeometry width="160" relative="1" as="geometry">
            <mxPoint x="360" y="400" as="sourcePoint" />
            <mxPoint x="360" y="635" as="targetPoint" />
          </mxGeometry>
        </mxCell>
        <mxCell id="xxXPaRyj7qe5OcDNK9K2-189" value="" style="fontSize=12;html=1;endFill=0;startFill=0;endSize=6;startSize=6;dashed=1;dashPattern=1 4;endArrow=openThin;startArrow=none;rounded=0;" parent="xxXPaRyj7qe5OcDNK9K2-2" source="xxXPaRyj7qe5OcDNK9K2-195" target="xxXPaRyj7qe5OcDNK9K2-119" edge="1">
          <mxGeometry width="160" relative="1" as="geometry">
            <mxPoint x="295" y="50" as="sourcePoint" />
            <mxPoint x="455" y="50" as="targetPoint" />
          </mxGeometry>
        </mxCell>
        <mxCell id="xxXPaRyj7qe5OcDNK9K2-194" value="" style="fontSize=12;html=1;endFill=0;startFill=0;endSize=6;startSize=6;dashed=1;dashPattern=1 4;endArrow=openThin;startArrow=none;rounded=0;" parent="xxXPaRyj7qe5OcDNK9K2-2" source="xxXPaRyj7qe5OcDNK9K2-191" target="xxXPaRyj7qe5OcDNK9K2-119" edge="1">
          <mxGeometry width="160" relative="1" as="geometry">
            <mxPoint x="295" y="50" as="sourcePoint" />
            <mxPoint x="455" y="50" as="targetPoint" />
          </mxGeometry>
        </mxCell>
        <mxCell id="xxXPaRyj7qe5OcDNK9K2-197" value="" style="fontSize=12;html=1;endFill=0;startFill=0;endSize=6;startSize=6;dashed=1;dashPattern=1 4;endArrow=openThin;startArrow=none;rounded=0;" parent="xxXPaRyj7qe5OcDNK9K2-2" source="xxXPaRyj7qe5OcDNK9K2-119" target="xxXPaRyj7qe5OcDNK9K2-187" edge="1">
          <mxGeometry width="160" relative="1" as="geometry">
            <mxPoint x="295" y="50" as="sourcePoint" />
            <mxPoint x="455" y="50" as="targetPoint" />
          </mxGeometry>
        </mxCell>
        <mxCell id="xxXPaRyj7qe5OcDNK9K2-206" value="" style="fontSize=12;html=1;endFill=0;startFill=0;endSize=6;startSize=6;dashed=1;dashPattern=1 1;endArrow=none;startArrow=none;rounded=0;" parent="xxXPaRyj7qe5OcDNK9K2-2" source="xxXPaRyj7qe5OcDNK9K2-165" target="xxXPaRyj7qe5OcDNK9K2-122" edge="1">
          <mxGeometry width="160" relative="1" as="geometry">
            <mxPoint x="350" y="320" as="sourcePoint" />
            <mxPoint x="510" y="320" as="targetPoint" />
            <Array as="points">
              <mxPoint x="60" y="635" />
              <mxPoint x="60" y="175" />
            </Array>
          </mxGeometry>
        </mxCell>
        <mxCell id="xxXPaRyj7qe5OcDNK9K2-120" value="" style="fontSize=12;html=1;endFill=0;startFill=0;endSize=6;startSize=6;dashed=1;dashPattern=1 4;endArrow=openThin;startArrow=none;rounded=0;" parent="xxXPaRyj7qe5OcDNK9K2-2" source="xxXPaRyj7qe5OcDNK9K2-125" target="xxXPaRyj7qe5OcDNK9K2-119" edge="1">
          <mxGeometry width="160" relative="1" as="geometry">
            <mxPoint x="295" y="50" as="sourcePoint" />
            <mxPoint x="455" y="50" as="targetPoint" />
            <Array as="points">
              <mxPoint x="370" y="250" />
              <mxPoint x="1120" y="250" />
            </Array>
          </mxGeometry>
        </mxCell>
        <mxCell id="xxXPaRyj7qe5OcDNK9K2-264" value="" style="fontSize=12;html=1;endFill=0;startFill=0;endSize=6;startSize=6;dashed=1;dashPattern=1 4;endArrow=openThin;startArrow=none;rounded=0;" parent="xxXPaRyj7qe5OcDNK9K2-2" source="xxXPaRyj7qe5OcDNK9K2-262" target="xxXPaRyj7qe5OcDNK9K2-119" edge="1">
          <mxGeometry width="160" relative="1" as="geometry">
            <mxPoint x="295" y="50" as="sourcePoint" />
            <mxPoint x="455" y="50" as="targetPoint" />
          </mxGeometry>
        </mxCell>
        <mxCell id="xxXPaRyj7qe5OcDNK9K2-269" value="" style="fontSize=12;html=1;endFill=0;startFill=0;endSize=6;startSize=6;dashed=1;dashPattern=1 4;endArrow=openThin;startArrow=none;rounded=0;" parent="xxXPaRyj7qe5OcDNK9K2-2" source="xxXPaRyj7qe5OcDNK9K2-266" target="xxXPaRyj7qe5OcDNK9K2-119" edge="1">
          <mxGeometry width="160" relative="1" as="geometry">
            <mxPoint x="295" y="50" as="sourcePoint" />
            <mxPoint x="455" y="50" as="targetPoint" />
          </mxGeometry>
        </mxCell>
        <mxCell id="xxXPaRyj7qe5OcDNK9K2-285" value="" style="fontSize=12;html=1;endFill=0;startFill=0;endSize=6;startSize=6;dashed=1;dashPattern=1 4;endArrow=openThin;startArrow=none;rounded=0;" parent="xxXPaRyj7qe5OcDNK9K2-2" source="xxXPaRyj7qe5OcDNK9K2-119" target="xxXPaRyj7qe5OcDNK9K2-282" edge="1">
          <mxGeometry width="160" relative="1" as="geometry">
            <mxPoint x="295" y="50" as="sourcePoint" />
            <mxPoint x="455" y="50" as="targetPoint" />
            <Array as="points">
              <mxPoint x="1130" y="230" />
            </Array>
          </mxGeometry>
        </mxCell>
        <mxCell id="xxXPaRyj7qe5OcDNK9K2-307" value="" style="fontSize=12;html=1;endFill=0;startFill=0;endSize=6;startSize=6;dashed=1;endArrow=none;startArrow=none;rounded=0;dashPattern=1 1;" parent="xxXPaRyj7qe5OcDNK9K2-2" source="xxXPaRyj7qe5OcDNK9K2-265" target="xxXPaRyj7qe5OcDNK9K2-306" edge="1">
          <mxGeometry width="160" relative="1" as="geometry">
            <mxPoint x="134" y="589" as="sourcePoint" />
            <mxPoint x="509" y="269" as="targetPoint" />
            <Array as="points">
              <mxPoint x="1281" y="560" />
              <mxPoint x="105" y="560" />
            </Array>
          </mxGeometry>
        </mxCell>
        <mxCell id="xxXPaRyj7qe5OcDNK9K2-312" value="" style="fontSize=12;html=1;endFill=0;startFill=1;endSize=6;startSize=6;dashed=1;dashPattern=1 4;endArrow=none;startArrow=classic;rounded=0;" parent="xxXPaRyj7qe5OcDNK9K2-2" source="xxXPaRyj7qe5OcDNK9K2-308" target="xxXPaRyj7qe5OcDNK9K2-119" edge="1">
          <mxGeometry width="160" relative="1" as="geometry">
            <mxPoint x="295" y="50" as="sourcePoint" />
            <mxPoint x="455" y="50" as="targetPoint" />
          </mxGeometry>
        </mxCell>
        <mxCell id="xxXPaRyj7qe5OcDNK9K2-329" value="" style="fontSize=12;html=1;endFill=0;startFill=0;endSize=6;startSize=6;dashed=1;dashPattern=1 4;endArrow=openThin;startArrow=none;rounded=0;" parent="xxXPaRyj7qe5OcDNK9K2-2" source="xxXPaRyj7qe5OcDNK9K2-119" target="xxXPaRyj7qe5OcDNK9K2-321" edge="1">
          <mxGeometry width="160" relative="1" as="geometry">
            <mxPoint x="295" y="50" as="sourcePoint" />
            <mxPoint x="455" y="50" as="targetPoint" />
          </mxGeometry>
        </mxCell>
        <mxCell id="xxXPaRyj7qe5OcDNK9K2-332" value="" style="fontSize=12;html=1;endFill=0;startFill=1;endSize=6;startSize=6;dashed=1;dashPattern=1 4;endArrow=none;startArrow=classic;rounded=0;" parent="xxXPaRyj7qe5OcDNK9K2-2" source="xxXPaRyj7qe5OcDNK9K2-119" target="xxXPaRyj7qe5OcDNK9K2-330" edge="1">
          <mxGeometry width="160" relative="1" as="geometry">
            <mxPoint x="455" y="50" as="sourcePoint" />
            <mxPoint x="295" y="50" as="targetPoint" />
          </mxGeometry>
        </mxCell>
        <mxCell id="o1t5ri_LKRyU3MXzn1um-5" value="" style="fontSize=12;html=1;endFill=0;startFill=0;endSize=6;startSize=6;dashed=1;dashPattern=1 4;endArrow=openThin;startArrow=none;rounded=0;" edge="1" parent="xxXPaRyj7qe5OcDNK9K2-2" source="xxXPaRyj7qe5OcDNK9K2-333" target="xxXPaRyj7qe5OcDNK9K2-119">
          <mxGeometry width="160" relative="1" as="geometry">
            <mxPoint x="295" y="50" as="sourcePoint" />
            <mxPoint x="455" y="50" as="targetPoint" />
          </mxGeometry>
        </mxCell>
        <mxCell id="o1t5ri_LKRyU3MXzn1um-6" value="" style="fontSize=12;html=1;endFill=0;startFill=0;endSize=6;startSize=6;dashed=1;dashPattern=1 4;endArrow=openThin;startArrow=none;rounded=0;" edge="1" parent="xxXPaRyj7qe5OcDNK9K2-2" source="xxXPaRyj7qe5OcDNK9K2-336" target="xxXPaRyj7qe5OcDNK9K2-119">
          <mxGeometry width="160" relative="1" as="geometry">
            <mxPoint x="295" y="50" as="sourcePoint" />
            <mxPoint x="455" y="50" as="targetPoint" />
          </mxGeometry>
        </mxCell>
        <mxCell id="o1t5ri_LKRyU3MXzn1um-7" value="" style="fontSize=12;html=1;endFill=0;startFill=0;endSize=6;startSize=6;dashed=1;dashPattern=1 4;endArrow=openThin;startArrow=none;rounded=0;" edge="1" parent="xxXPaRyj7qe5OcDNK9K2-2" source="xxXPaRyj7qe5OcDNK9K2-270" target="xxXPaRyj7qe5OcDNK9K2-119">
          <mxGeometry width="160" relative="1" as="geometry">
            <mxPoint x="295" y="50" as="sourcePoint" />
            <mxPoint x="455" y="50" as="targetPoint" />
          </mxGeometry>
        </mxCell>
        <mxCell id="xxXPaRyj7qe5OcDNK9K2-104" value="One Service" style="swimlane;html=1;childLayout=stackLayout;resizeParent=1;resizeParentMax=0;horizontal=0;startSize=20;horizontalStack=0;whiteSpace=wrap;" parent="xxXPaRyj7qe5OcDNK9K2-1" vertex="1">
          <mxGeometry x="20" y="1470" width="1634" height="230" as="geometry" />
        </mxCell>
        <mxCell id="xxXPaRyj7qe5OcDNK9K2-170" value="Queue Handler" style="swimlane;html=1;startSize=20;horizontal=0;" parent="xxXPaRyj7qe5OcDNK9K2-104" vertex="1">
          <mxGeometry x="20" width="1614" height="230" as="geometry" />
        </mxCell>
        <mxCell id="xxXPaRyj7qe5OcDNK9K2-168" value="" style="points=[[0.145,0.145,0],[0.5,0,0],[0.855,0.145,0],[1,0.5,0],[0.855,0.855,0],[0.5,1,0],[0.145,0.855,0],[0,0.5,0]];shape=mxgraph.bpmn.event;html=1;verticalLabelPosition=bottom;labelBackgroundColor=#ffffff;verticalAlign=top;align=center;perimeter=ellipsePerimeter;outlineConnect=0;aspect=fixed;outline=standard;symbol=message;" parent="xxXPaRyj7qe5OcDNK9K2-170" vertex="1">
          <mxGeometry x="175" y="39" width="50" height="50" as="geometry" />
        </mxCell>
        <mxCell id="xxXPaRyj7qe5OcDNK9K2-208" value="" style="edgeStyle=elbowEdgeStyle;fontSize=12;html=1;endArrow=blockThin;endFill=1;rounded=0;" parent="xxXPaRyj7qe5OcDNK9K2-170" source="xxXPaRyj7qe5OcDNK9K2-248" target="o1t5ri_LKRyU3MXzn1um-9" edge="1">
          <mxGeometry width="160" relative="1" as="geometry">
            <mxPoint x="415" y="671" as="sourcePoint" />
            <mxPoint x="459.9954929577466" y="64.0038461538461" as="targetPoint" />
          </mxGeometry>
        </mxCell>
        <mxCell id="xxXPaRyj7qe5OcDNK9K2-214" value="Send succeeded/failed data to signed s3 callback URL" style="points=[[0.25,0,0],[0.5,0,0],[0.75,0,0],[1,0.25,0],[1,0.5,0],[1,0.75,0],[0.75,1,0],[0.5,1,0],[0.25,1,0],[0,0.75,0],[0,0.5,0],[0,0.25,0]];shape=mxgraph.bpmn.task;whiteSpace=wrap;rectStyle=rounded;size=10;html=1;container=1;expand=0;collapsible=0;taskMarker=send;" parent="xxXPaRyj7qe5OcDNK9K2-170" vertex="1">
          <mxGeometry x="460" y="124" width="120" height="80" as="geometry" />
        </mxCell>
        <mxCell id="xxXPaRyj7qe5OcDNK9K2-216" value="" style="edgeStyle=elbowEdgeStyle;fontSize=12;html=1;endArrow=blockThin;endFill=1;rounded=0;" parent="xxXPaRyj7qe5OcDNK9K2-170" source="o1t5ri_LKRyU3MXzn1um-9" target="xxXPaRyj7qe5OcDNK9K2-214" edge="1">
          <mxGeometry width="160" relative="1" as="geometry">
            <mxPoint x="520.1176470588236" y="104.0038461538461" as="sourcePoint" />
            <mxPoint x="720" y="670" as="targetPoint" />
          </mxGeometry>
        </mxCell>
        <mxCell id="xxXPaRyj7qe5OcDNK9K2-245" value="Create job" style="points=[[0.25,0,0],[0.5,0,0],[0.75,0,0],[1,0.25,0],[1,0.5,0],[1,0.75,0],[0.75,1,0],[0.5,1,0],[0.25,1,0],[0,0.75,0],[0,0.5,0],[0,0.25,0]];shape=mxgraph.bpmn.task;whiteSpace=wrap;rectStyle=rounded;size=10;html=1;container=1;expand=0;collapsible=0;taskMarker=abstract;" parent="xxXPaRyj7qe5OcDNK9K2-170" vertex="1">
          <mxGeometry x="239.99549295774648" y="24.003846153846098" width="120" height="80" as="geometry" />
        </mxCell>
        <mxCell id="xxXPaRyj7qe5OcDNK9K2-246" value="" style="edgeStyle=elbowEdgeStyle;fontSize=12;html=1;endArrow=blockThin;endFill=1;rounded=0;" parent="xxXPaRyj7qe5OcDNK9K2-170" source="xxXPaRyj7qe5OcDNK9K2-168" target="xxXPaRyj7qe5OcDNK9K2-245" edge="1">
          <mxGeometry width="160" relative="1" as="geometry">
            <mxPoint x="265" y="1175" as="sourcePoint" />
            <mxPoint x="495" y="1175" as="targetPoint" />
          </mxGeometry>
        </mxCell>
        <mxCell id="xxXPaRyj7qe5OcDNK9K2-247" value="" style="edgeStyle=elbowEdgeStyle;fontSize=12;html=1;endArrow=blockThin;endFill=1;rounded=0;" parent="xxXPaRyj7qe5OcDNK9K2-170" source="xxXPaRyj7qe5OcDNK9K2-245" target="xxXPaRyj7qe5OcDNK9K2-248" edge="1">
          <mxGeometry width="160" relative="1" as="geometry">
            <mxPoint x="410" y="1175" as="sourcePoint" />
            <mxPoint x="495" y="1175" as="targetPoint" />
          </mxGeometry>
        </mxCell>
        <mxCell id="xxXPaRyj7qe5OcDNK9K2-248" value="Job" style="shape=mxgraph.bpmn.event;html=1;verticalLabelPosition=bottom;labelBackgroundColor=#ffffff;verticalAlign=top;align=center;outlineConnect=0;aspect=fixed;outline=throwing;symbol=signal;points=[[0.145,0.145,0],[0.5,0,0],[0.855,0.145,0],[1,0.5,0],[0.855,0.855,0],[0.5,1,0],[0.145,0.855,0],[0,0.5,0]];perimeter=ellipsePerimeter;" parent="xxXPaRyj7qe5OcDNK9K2-170" vertex="1">
          <mxGeometry x="380" y="39" width="50" height="50" as="geometry" />
        </mxCell>
        <mxCell id="xxXPaRyj7qe5OcDNK9K2-391" value="" style="edgeStyle=orthogonalEdgeStyle;rounded=0;orthogonalLoop=1;jettySize=auto;html=1;" parent="xxXPaRyj7qe5OcDNK9K2-170" source="xxXPaRyj7qe5OcDNK9K2-214" target="o1t5ri_LKRyU3MXzn1um-1" edge="1">
          <mxGeometry relative="1" as="geometry">
            <mxPoint x="620" y="2004" as="sourcePoint" />
            <mxPoint x="600" y="164" as="targetPoint" />
          </mxGeometry>
        </mxCell>
        <mxCell id="o1t5ri_LKRyU3MXzn1um-1" value="Job" style="points=[[0.145,0.145,0],[0.5,0,0],[0.855,0.145,0],[1,0.5,0],[0.855,0.855,0],[0.5,1,0],[0.145,0.855,0],[0,0.5,0]];shape=mxgraph.bpmn.event;html=1;verticalLabelPosition=bottom;labelBackgroundColor=#ffffff;verticalAlign=top;align=center;perimeter=ellipsePerimeter;outlineConnect=0;aspect=fixed;outline=end;symbol=signal;" vertex="1" parent="xxXPaRyj7qe5OcDNK9K2-170">
          <mxGeometry x="610" y="139" width="50" height="50" as="geometry" />
        </mxCell>
        <mxCell id="o1t5ri_LKRyU3MXzn1um-9" value="Request BOM data from on-premise" style="points=[[0.25,0,0],[0.5,0,0],[0.75,0,0],[1,0.25,0],[1,0.5,0],[1,0.75,0],[0.75,1,0],[0.5,1,0],[0.25,1,0],[0,0.75,0],[0,0.5,0],[0,0.25,0]];shape=mxgraph.bpmn.task;whiteSpace=wrap;rectStyle=rounded;size=10;html=1;container=1;expand=0;collapsible=0;taskMarker=receive;" vertex="1" parent="xxXPaRyj7qe5OcDNK9K2-170">
          <mxGeometry x="460" y="24" width="120" height="80" as="geometry" />
        </mxCell>
        <mxCell id="xxXPaRyj7qe5OcDNK9K2-173" value="" style="dashed=1;dashPattern=8 4;endArrow=blockThin;endFill=1;startArrow=oval;startFill=0;endSize=6;startSize=4;html=1;rounded=0;" parent="xxXPaRyj7qe5OcDNK9K2-1" source="xxXPaRyj7qe5OcDNK9K2-237" target="xxXPaRyj7qe5OcDNK9K2-168" edge="1">
          <mxGeometry width="160" relative="1" as="geometry">
            <mxPoint x="239.99589808864175" y="425.0038461538461" as="sourcePoint" />
            <mxPoint x="380" y="635" as="targetPoint" />
          </mxGeometry>
        </mxCell>
        <mxCell id="xxXPaRyj7qe5OcDNK9K2-249" value="" style="fontSize=12;html=1;endFill=0;startFill=0;endSize=6;startSize=6;dashed=1;dashPattern=1 1;endArrow=none;startArrow=none;rounded=0;" parent="xxXPaRyj7qe5OcDNK9K2-1" source="xxXPaRyj7qe5OcDNK9K2-184" target="xxXPaRyj7qe5OcDNK9K2-248" edge="1">
          <mxGeometry width="160" relative="1" as="geometry">
            <mxPoint x="159" y="387" as="sourcePoint" />
            <mxPoint x="525" y="262" as="targetPoint" />
          </mxGeometry>
        </mxCell>
        <mxCell id="xxXPaRyj7qe5OcDNK9K2-115" value="" style="dashed=1;dashPattern=8 4;endArrow=blockThin;endFill=1;startArrow=oval;startFill=0;endSize=6;startSize=4;html=1;rounded=0;" parent="1" source="xxXPaRyj7qe5OcDNK9K2-304" target="xxXPaRyj7qe5OcDNK9K2-111" edge="1">
          <mxGeometry width="160" relative="1" as="geometry">
            <mxPoint x="125" y="220" as="sourcePoint" />
            <mxPoint x="480" y="290" as="targetPoint" />
          </mxGeometry>
        </mxCell>
        <mxCell id="xxXPaRyj7qe5OcDNK9K2-356" value="POST /kitting/plans" style="edgeLabel;html=1;align=center;verticalAlign=middle;resizable=0;points=[];" parent="xxXPaRyj7qe5OcDNK9K2-115" vertex="1" connectable="0">
          <mxGeometry x="-0.5879" y="-2" relative="1" as="geometry">
            <mxPoint x="2" y="16" as="offset" />
          </mxGeometry>
        </mxCell>
        <mxCell id="xxXPaRyj7qe5OcDNK9K2-116" value="" style="dashed=1;dashPattern=8 4;endArrow=blockThin;endFill=1;startArrow=oval;startFill=0;endSize=6;startSize=4;html=1;rounded=0;edgeStyle=orthogonalEdgeStyle;elbow=vertical;" parent="1" source="xxXPaRyj7qe5OcDNK9K2-118" target="xxXPaRyj7qe5OcDNK9K2-108" edge="1">
          <mxGeometry width="160" relative="1" as="geometry">
            <mxPoint x="320" y="290" as="sourcePoint" />
            <mxPoint x="480" y="290" as="targetPoint" />
          </mxGeometry>
        </mxCell>
        <mxCell id="xxXPaRyj7qe5OcDNK9K2-225" value="AWS" style="swimlane;html=1;childLayout=stackLayout;resizeParent=1;resizeParentMax=0;horizontal=0;startSize=20;horizontalStack=0;whiteSpace=wrap;" parent="1" vertex="1">
          <mxGeometry y="2118" width="1650" height="220" as="geometry" />
        </mxCell>
        <mxCell id="xxXPaRyj7qe5OcDNK9K2-226" value="S3" style="swimlane;html=1;startSize=20;horizontal=0;" parent="xxXPaRyj7qe5OcDNK9K2-225" vertex="1">
          <mxGeometry x="20" width="1630" height="220" as="geometry" />
        </mxCell>
        <mxCell id="xxXPaRyj7qe5OcDNK9K2-233" value="" style="points=[[0.145,0.145,0],[0.5,0,0],[0.855,0.145,0],[1,0.5,0],[0.855,0.855,0],[0.5,1,0],[0.145,0.855,0],[0,0.5,0]];shape=mxgraph.bpmn.event;html=1;verticalLabelPosition=bottom;labelBackgroundColor=#ffffff;verticalAlign=top;align=center;perimeter=ellipsePerimeter;outlineConnect=0;aspect=fixed;outline=standard;symbol=message;" parent="xxXPaRyj7qe5OcDNK9K2-226" vertex="1">
          <mxGeometry x="515" y="60" width="50" height="50" as="geometry" />
        </mxCell>
        <mxCell id="xxXPaRyj7qe5OcDNK9K2-239" value="Store data" style="points=[[0.25,0,0],[0.5,0,0],[0.75,0,0],[1,0.25,0],[1,0.5,0],[1,0.75,0],[0.75,1,0],[0.5,1,0],[0.25,1,0],[0,0.75,0],[0,0.5,0],[0,0.25,0]];shape=mxgraph.bpmn.task;whiteSpace=wrap;rectStyle=rounded;size=10;html=1;container=1;expand=0;collapsible=0;taskMarker=abstract;" parent="xxXPaRyj7qe5OcDNK9K2-226" vertex="1">
          <mxGeometry x="590" y="45" width="120" height="80" as="geometry" />
        </mxCell>
        <mxCell id="xxXPaRyj7qe5OcDNK9K2-240" value="" style="edgeStyle=orthogonalEdgeStyle;rounded=0;orthogonalLoop=1;jettySize=auto;html=1;" parent="xxXPaRyj7qe5OcDNK9K2-226" source="xxXPaRyj7qe5OcDNK9K2-233" target="xxXPaRyj7qe5OcDNK9K2-239" edge="1">
          <mxGeometry relative="1" as="geometry" />
        </mxCell>
        <mxCell id="xxXPaRyj7qe5OcDNK9K2-241" value="S3Event" style="points=[[0.145,0.145,0],[0.5,0,0],[0.855,0.145,0],[1,0.5,0],[0.855,0.855,0],[0.5,1,0],[0.145,0.855,0],[0,0.5,0]];shape=mxgraph.bpmn.event;html=1;verticalLabelPosition=bottom;labelBackgroundColor=#ffffff;verticalAlign=top;align=center;perimeter=ellipsePerimeter;outlineConnect=0;aspect=fixed;outline=end;symbol=signal;" parent="xxXPaRyj7qe5OcDNK9K2-226" vertex="1">
          <mxGeometry x="740" y="60" width="50" height="50" as="geometry" />
        </mxCell>
        <mxCell id="xxXPaRyj7qe5OcDNK9K2-242" value="" style="edgeStyle=orthogonalEdgeStyle;rounded=0;orthogonalLoop=1;jettySize=auto;html=1;" parent="xxXPaRyj7qe5OcDNK9K2-226" source="xxXPaRyj7qe5OcDNK9K2-239" target="xxXPaRyj7qe5OcDNK9K2-241" edge="1">
          <mxGeometry relative="1" as="geometry" />
        </mxCell>
        <mxCell id="xxXPaRyj7qe5OcDNK9K2-243" value="Bucket" style="shape=datastore;html=1;labelPosition=center;verticalLabelPosition=middle;align=center;verticalAlign=middle;" parent="xxXPaRyj7qe5OcDNK9K2-226" vertex="1">
          <mxGeometry x="760" y="160" width="40" height="40" as="geometry" />
        </mxCell>
        <mxCell id="xxXPaRyj7qe5OcDNK9K2-244" value="" style="fontSize=12;html=1;endFill=0;startFill=0;endSize=6;startSize=6;dashed=1;dashPattern=1 4;endArrow=openThin;startArrow=none;rounded=0;" parent="xxXPaRyj7qe5OcDNK9K2-226" source="xxXPaRyj7qe5OcDNK9K2-239" target="xxXPaRyj7qe5OcDNK9K2-243" edge="1">
          <mxGeometry width="160" relative="1" as="geometry">
            <mxPoint x="655" y="-980" as="sourcePoint" />
            <mxPoint x="495" y="-980" as="targetPoint" />
          </mxGeometry>
        </mxCell>
        <mxCell id="xxXPaRyj7qe5OcDNK9K2-292" value="" style="points=[[0.145,0.145,0],[0.5,0,0],[0.855,0.145,0],[1,0.5,0],[0.855,0.855,0],[0.5,1,0],[0.145,0.855,0],[0,0.5,0]];shape=mxgraph.bpmn.event;html=1;verticalLabelPosition=bottom;labelBackgroundColor=#ffffff;verticalAlign=top;align=center;perimeter=ellipsePerimeter;outlineConnect=0;aspect=fixed;outline=standard;symbol=message;" parent="xxXPaRyj7qe5OcDNK9K2-226" vertex="1">
          <mxGeometry x="875" y="30" width="50" height="50" as="geometry" />
        </mxCell>
        <mxCell id="xxXPaRyj7qe5OcDNK9K2-298" value="Store data" style="points=[[0.25,0,0],[0.5,0,0],[0.75,0,0],[1,0.25,0],[1,0.5,0],[1,0.75,0],[0.75,1,0],[0.5,1,0],[0.25,1,0],[0,0.75,0],[0,0.5,0],[0,0.25,0]];shape=mxgraph.bpmn.task;whiteSpace=wrap;rectStyle=rounded;size=10;html=1;container=1;expand=0;collapsible=0;taskMarker=abstract;" parent="xxXPaRyj7qe5OcDNK9K2-226" vertex="1">
          <mxGeometry x="840" y="100" width="120" height="80" as="geometry" />
        </mxCell>
        <mxCell id="xxXPaRyj7qe5OcDNK9K2-299" value="" style="points=[[0.145,0.145,0],[0.5,0,0],[0.855,0.145,0],[1,0.5,0],[0.855,0.855,0],[0.5,1,0],[0.145,0.855,0],[0,0.5,0]];shape=mxgraph.bpmn.event;html=1;verticalLabelPosition=bottom;labelBackgroundColor=#ffffff;verticalAlign=top;align=center;perimeter=ellipsePerimeter;outlineConnect=0;aspect=fixed;outline=end;symbol=message;" parent="xxXPaRyj7qe5OcDNK9K2-226" vertex="1">
          <mxGeometry x="1020" y="115" width="50" height="50" as="geometry" />
        </mxCell>
        <mxCell id="xxXPaRyj7qe5OcDNK9K2-300" value="" style="edgeStyle=orthogonalEdgeStyle;rounded=0;orthogonalLoop=1;jettySize=auto;html=1;" parent="xxXPaRyj7qe5OcDNK9K2-226" source="xxXPaRyj7qe5OcDNK9K2-298" target="xxXPaRyj7qe5OcDNK9K2-299" edge="1">
          <mxGeometry relative="1" as="geometry">
            <mxPoint x="720" y="95" as="sourcePoint" />
            <mxPoint x="750" y="95" as="targetPoint" />
          </mxGeometry>
        </mxCell>
        <mxCell id="xxXPaRyj7qe5OcDNK9K2-301" value="" style="edgeStyle=orthogonalEdgeStyle;rounded=0;orthogonalLoop=1;jettySize=auto;html=1;" parent="xxXPaRyj7qe5OcDNK9K2-226" source="xxXPaRyj7qe5OcDNK9K2-292" target="xxXPaRyj7qe5OcDNK9K2-298" edge="1">
          <mxGeometry relative="1" as="geometry">
            <mxPoint x="720" y="95" as="sourcePoint" />
            <mxPoint x="750" y="95" as="targetPoint" />
          </mxGeometry>
        </mxCell>
        <mxCell id="xxXPaRyj7qe5OcDNK9K2-303" value="" style="fontSize=12;html=1;endFill=0;startFill=0;endSize=6;startSize=6;dashed=1;dashPattern=1 4;endArrow=openThin;startArrow=none;rounded=0;" parent="xxXPaRyj7qe5OcDNK9K2-226" source="xxXPaRyj7qe5OcDNK9K2-243" target="xxXPaRyj7qe5OcDNK9K2-298" edge="1">
          <mxGeometry width="160" relative="1" as="geometry">
            <mxPoint x="655" y="-980" as="sourcePoint" />
            <mxPoint x="495" y="-980" as="targetPoint" />
          </mxGeometry>
        </mxCell>
        <mxCell id="xxXPaRyj7qe5OcDNK9K2-234" value="" style="dashed=1;dashPattern=8 4;endArrow=blockThin;endFill=1;startArrow=oval;startFill=0;endSize=6;startSize=4;html=1;rounded=0;" parent="1" source="xxXPaRyj7qe5OcDNK9K2-214" target="xxXPaRyj7qe5OcDNK9K2-233" edge="1">
          <mxGeometry width="160" relative="1" as="geometry">
            <mxPoint x="600" y="755" as="sourcePoint" />
            <mxPoint x="600" y="986" as="targetPoint" />
          </mxGeometry>
        </mxCell>
        <mxCell id="xxXPaRyj7qe5OcDNK9K2-255" value="" style="fontSize=12;html=1;endFill=0;startFill=0;endSize=6;startSize=6;dashed=1;dashPattern=1 1;endArrow=none;startArrow=none;rounded=0;" parent="1" source="xxXPaRyj7qe5OcDNK9K2-253" target="xxXPaRyj7qe5OcDNK9K2-241" edge="1">
          <mxGeometry width="160" relative="1" as="geometry">
            <mxPoint x="159" y="707" as="sourcePoint" />
            <mxPoint x="525" y="582" as="targetPoint" />
          </mxGeometry>
        </mxCell>
        <mxCell id="xxXPaRyj7qe5OcDNK9K2-256" value="" style="fontSize=12;html=1;endFill=0;startFill=0;endSize=6;startSize=6;dashed=1;dashPattern=1 1;endArrow=none;startArrow=none;rounded=0;" parent="1" source="xxXPaRyj7qe5OcDNK9K2-254" target="xxXPaRyj7qe5OcDNK9K2-241" edge="1">
          <mxGeometry width="160" relative="1" as="geometry">
            <mxPoint x="159" y="707" as="sourcePoint" />
            <mxPoint x="525" y="582" as="targetPoint" />
          </mxGeometry>
        </mxCell>
        <mxCell id="xxXPaRyj7qe5OcDNK9K2-278" value="" style="dashed=1;dashPattern=8 4;endArrow=blockThin;endFill=1;startArrow=oval;startFill=0;endSize=6;startSize=4;html=1;rounded=0;" parent="1" source="xxXPaRyj7qe5OcDNK9K2-275" target="xxXPaRyj7qe5OcDNK9K2-277" edge="1">
          <mxGeometry width="160" relative="1" as="geometry">
            <mxPoint x="450" y="290" as="sourcePoint" />
            <mxPoint x="610" y="290" as="targetPoint" />
          </mxGeometry>
        </mxCell>
        <mxCell id="xxXPaRyj7qe5OcDNK9K2-357" value="GET /kitting/plans/1234" style="edgeLabel;html=1;align=center;verticalAlign=middle;resizable=0;points=[];" parent="xxXPaRyj7qe5OcDNK9K2-278" vertex="1" connectable="0">
          <mxGeometry x="-0.5982" relative="1" as="geometry">
            <mxPoint y="17" as="offset" />
          </mxGeometry>
        </mxCell>
        <mxCell id="xxXPaRyj7qe5OcDNK9K2-281" value="" style="dashed=1;dashPattern=8 4;endArrow=blockThin;endFill=1;startArrow=oval;startFill=0;endSize=6;startSize=4;html=1;rounded=0;" parent="1" source="xxXPaRyj7qe5OcDNK9K2-283" target="xxXPaRyj7qe5OcDNK9K2-275" edge="1">
          <mxGeometry width="160" relative="1" as="geometry">
            <mxPoint x="1001.9824561403509" y="425" as="sourcePoint" />
            <mxPoint x="920" y="450" as="targetPoint" />
          </mxGeometry>
        </mxCell>
        <mxCell id="xxXPaRyj7qe5OcDNK9K2-297" value="" style="dashed=1;dashPattern=8 4;endArrow=blockThin;endFill=1;startArrow=oval;startFill=0;endSize=6;startSize=4;html=1;rounded=0;" parent="1" source="xxXPaRyj7qe5OcDNK9K2-294" target="xxXPaRyj7qe5OcDNK9K2-292" edge="1">
          <mxGeometry width="160" relative="1" as="geometry">
            <mxPoint x="600" y="755" as="sourcePoint" />
            <mxPoint x="600" y="986" as="targetPoint" />
          </mxGeometry>
        </mxCell>
        <mxCell id="xxXPaRyj7qe5OcDNK9K2-302" value="" style="dashed=1;dashPattern=8 4;endArrow=blockThin;endFill=1;startArrow=oval;startFill=0;endSize=6;startSize=4;html=1;rounded=0;" parent="1" source="xxXPaRyj7qe5OcDNK9K2-299" target="xxXPaRyj7qe5OcDNK9K2-266" edge="1">
          <mxGeometry width="160" relative="1" as="geometry">
            <mxPoint x="600" y="755" as="sourcePoint" />
            <mxPoint x="600" y="986" as="targetPoint" />
          </mxGeometry>
        </mxCell>
        <mxCell id="xxXPaRyj7qe5OcDNK9K2-324" value="" style="dashed=1;dashPattern=8 4;endArrow=blockThin;endFill=1;startArrow=oval;startFill=0;endSize=6;startSize=4;html=1;rounded=0;" parent="1" source="xxXPaRyj7qe5OcDNK9K2-315" target="xxXPaRyj7qe5OcDNK9K2-319" edge="1">
          <mxGeometry width="160" relative="1" as="geometry">
            <mxPoint x="450" y="290" as="sourcePoint" />
            <mxPoint x="610" y="290" as="targetPoint" />
          </mxGeometry>
        </mxCell>
        <mxCell id="xxXPaRyj7qe5OcDNK9K2-358" value="GET /kitting/plans/1234/details" style="edgeLabel;html=1;align=center;verticalAlign=middle;resizable=0;points=[];" parent="xxXPaRyj7qe5OcDNK9K2-324" vertex="1" connectable="0">
          <mxGeometry x="-0.2267" relative="1" as="geometry">
            <mxPoint as="offset" />
          </mxGeometry>
        </mxCell>
        <mxCell id="xxXPaRyj7qe5OcDNK9K2-325" value="" style="dashed=1;dashPattern=8 4;endArrow=blockThin;endFill=1;startArrow=oval;startFill=0;endSize=6;startSize=4;html=1;rounded=0;" parent="1" source="xxXPaRyj7qe5OcDNK9K2-361" target="xxXPaRyj7qe5OcDNK9K2-316" edge="1">
          <mxGeometry width="160" relative="1" as="geometry">
            <mxPoint x="1001.9824561403509" y="425" as="sourcePoint" />
            <mxPoint x="920" y="450" as="targetPoint" />
          </mxGeometry>
        </mxCell>
        <mxCell id="o1t5ri_LKRyU3MXzn1um-10" value="" style="dashed=1;dashPattern=8 4;endArrow=blockThin;endFill=1;startArrow=oval;startFill=0;endSize=6;startSize=4;html=1;rounded=0;" edge="1" parent="1" source="xxXPaRyj7qe5OcDNK9K2-384" target="o1t5ri_LKRyU3MXzn1um-9">
          <mxGeometry width="160" relative="1" as="geometry">
            <mxPoint x="930" y="1835" as="sourcePoint" />
            <mxPoint x="930" y="2158" as="targetPoint" />
            <Array as="points">
              <mxPoint x="1585" y="1934" />
            </Array>
          </mxGeometry>
        </mxCell>
      </root>
    </mxGraphModel>
  </diagram>
</mxfile>
